<svg xmlns="http://www.w3.org/2000/svg" xmlns:xlink="http://www.w3.org/1999/xlink" viewBox="0 0 479.44 300.31"><defs><style>.cls-1{fill:none;}.cls-2{fill:#2b3179;stroke:#2b3179;stroke-miterlimit:10;stroke-width:0.68px;}.cls-3{fill:#ed2024;}.cls-4{clip-path:url(#clip-path);}.cls-5,.cls-7{fill:#fff;}.cls-6{fill:#ed2224;}.cls-6,.cls-7{fill-rule:evenodd;}.cls-8{fill:url(#New_Gradient_Swatch_1);}.cls-9{fill:url(#New_Gradient_Swatch_2);}.cls-10{fill:url(#New_Gradient_Swatch_2-2);}.cls-11{clip-path:url(#clip-path-2);}.cls-12{fill:url(#New_Gradient_Swatch_1-2);}</style><clipPath id="clip-path"><path class="cls-1" d="M148.94,31c-.76,9.51-7.54,121.54,90.84,153.94a1.17,1.17,0,0,0,.74,0c6.58-2.12,99.51-34.28,89.92-154a1.23,1.23,0,0,0-.56-.93c-7-4.35-85.55-50.72-180.31,0A1.2,1.2,0,0,0,148.94,31Z"/></clipPath><linearGradient id="New_Gradient_Swatch_1" x1="234.75" y1="109.21" x2="235.84" y2="125.98" gradientTransform="matrix(1.01, -0.09, 0, 0.99, 0.93, -5.56)" gradientUnits="userSpaceOnUse"><stop offset="0" stop-color="#b61f24"/><stop offset="1" stop-color="#ed2024"/></linearGradient><radialGradient id="New_Gradient_Swatch_2" cx="242.1" cy="125.4" fx="227.7354331120174" r="94.11" gradientTransform="matrix(-0.01, 1, -0.86, -0.01, 353.78, -115.23)" gradientUnits="userSpaceOnUse"><stop offset="0" stop-color="#2b3179"/><stop offset="0.53" stop-color="#292c70"/><stop offset="1" stop-color="#191a4c"/></radialGradient><radialGradient id="New_Gradient_Swatch_2-2" cx="249.3" cy="42.44" fx="249.30148472168003" r="92.1" gradientTransform="matrix(1, 0, 0, 1, 0, 0)" xlink:href="#New_Gradient_Swatch_2"/><clipPath id="clip-path-2"><path class="cls-1" d="M148.93,30.73c-.76,9.53-7.56,121.87,91.09,154.37a1.17,1.17,0,0,0,.74,0c6.6-2.12,99.79-34.37,90.17-154.42a1.2,1.2,0,0,0-.56-.92c-7-4.37-85.79-50.87-180.81,0A1.18,1.18,0,0,0,148.93,30.73Z"/></clipPath><linearGradient id="New_Gradient_Swatch_1-2" x1="234.98" y1="109.07" x2="236.07" y2="125.89" xlink:href="#New_Gradient_Swatch_1"/></defs><g id="Layer_2" data-name="Layer 2"><g id="Layer_1-2" data-name="Layer 1"><path class="cls-2" d="M27.8,256.92c3.79-8.74,12.53-31.5,14-36.2a9.26,9.26,0,0,0,.59-2.48,1.6,1.6,0,0,0-.85-1.5,8.26,8.26,0,0,0-2.48-.26c-.39,0-.71-.07-.71-.39s.39-.53,1.43-.53c2.61,0,5.61.2,6.39.2.4,0,3.2-.2,5.09-.2.72,0,1.11.14,1.11.46s-.26.46-.78.46a5.93,5.93,0,0,0-3.13.78c-.85.59-1.83,1.7-3.59,6.13-.72,1.83-4,9.66-7.31,17.68-4,9.53-6.91,16.57-8.41,19.77-1.83,3.91-2.09,5-2.74,5s-1.11-.92-2.35-4.05l-16-40c-1.44-3.65-2.42-4.37-4.7-5a10.2,10.2,0,0,0-2.48-.26c-.39,0-.52-.2-.52-.46s.65-.46,1.7-.46c3.13,0,6.85.2,7.63.2s3.59-.2,6.06-.2c1.18,0,1.77.14,1.77.46s-.2.46-.66.46a7.58,7.58,0,0,0-2.47.32,1.31,1.31,0,0,0-.85,1.31,24.79,24.79,0,0,0,1.76,5.41Z"/><path class="cls-2" d="M80,214.65c14.68,0,25.64,9.26,25.64,24.46,0,14.62-10.31,26.69-26,26.69-17.88,0-25.31-13.9-25.31-25.64C54.29,229.59,62,214.65,80,214.65Zm1.37,48.67c5.87,0,18-3.4,18-22.38,0-15.65-9.53-24.07-19.84-24.07-10.89,0-19,7.18-19,21.46C60.49,253.53,69.62,263.32,81.36,263.32Z"/><path class="cls-2" d="M124.94,246.1c0,9.58.26,13.76,1.43,14.93s2.74,1.5,7.83,1.5c3.46,0,6.33-.06,7.89-1.95a9.18,9.18,0,0,0,1.7-3.92c.06-.52.2-.85.59-.85s.39.27.39,1a42.07,42.07,0,0,1-1,6.53c-.46,1.5-.65,1.76-4.11,1.76-4.7,0-8.09-.13-10.83-.2s-4.76-.19-6.65-.19c-.26,0-1.37.06-2.68.06s-2.74.13-3.72.13c-.71,0-1-.13-1-.52,0-.2.13-.39.52-.39a10.14,10.14,0,0,0,2-.26c1.3-.26,1.63-1.7,1.89-3.59.33-2.74.33-7.89.33-14.16V234.48c0-10.17,0-12-.13-14.09s-.66-3.26-2.81-3.72a12.23,12.23,0,0,0-2.22-.19c-.26,0-.52-.13-.52-.39s.33-.53,1-.53c2.93,0,7,.2,7.37.2s5.09-.2,7-.2c.72,0,1,.14,1,.53s-.26.39-.53.39a15.26,15.26,0,0,0-2.15.19c-1.89.33-2.41,1.44-2.54,3.72-.13,2.09-.13,3.92-.13,14.09Z"/><path class="cls-2" d="M153.9,234.48c0-10.17,0-12-.13-14.09s-.65-3.26-2.8-3.72a12.39,12.39,0,0,0-2.22-.19c-.26,0-.52-.13-.52-.39s.32-.53,1-.53c2.94,0,6.91.2,7.5.2s4.5-.2,6.46-.2c.72,0,1,.14,1,.53s-.26.39-.52.39a9.65,9.65,0,0,0-1.63.19c-1.76.27-2.28,1.44-2.41,3.72-.13,2.09-.13,3.92-.13,14.09v9.14c0,9.39,2.08,13.43,4.89,16.11,3.2,3,6.13,3.59,9.85,3.59a13.72,13.72,0,0,0,10.24-4.7c3-3.72,3.79-9.26,3.79-16v-8.16c0-10.17,0-12-.14-14.09s-.65-3.26-2.8-3.72a12.23,12.23,0,0,0-2.22-.19c-.26,0-.52-.13-.52-.39s.33-.53,1-.53c2.94,0,6.53.2,6.92.2s3.52-.2,5.48-.2c.72,0,1,.14,1,.53s-.26.39-.52.39a9.54,9.54,0,0,0-1.63.19c-1.76.4-2.28,1.44-2.41,3.72-.13,2.09-.13,3.92-.13,14.09v7c0,7-.79,14.88-6,19.51A19.13,19.13,0,0,1,173,265.8c-2.21,0-8.8-.27-13.43-4.64-3.2-3.06-5.68-7.63-5.68-17.15Z"/><path class="cls-2" d="M259.32,256.53c.26,2.35.72,6,3.52,6.92a14.31,14.31,0,0,0,4.24.58c.33,0,.52.07.52.33s-.58.59-1.37.59c-1.43,0-8.48-.07-10.89-.26-1.5-.13-1.83-.33-1.83-.66s.13-.39.46-.45.39-1.18.26-2.35l-3.13-33.86h-.2l-16,33.92c-1.37,2.87-1.56,3.46-2.15,3.46s-.78-.65-2-3c-1.7-3.19-7.31-14.48-7.64-15.13-.58-1.18-7.89-16.83-8.61-18.6h-.26l-2.61,30.27c-.06,1-.06,2.22-.06,3.33a2.08,2.08,0,0,0,1.69,2,12.21,12.21,0,0,0,2.48.33c.26,0,.52.13.52.33,0,.45-.39.58-1.17.58-2.41,0-5.54-.19-6.07-.19s-3.72.19-5.48.19c-.65,0-1.1-.13-1.1-.58,0-.2.32-.33.65-.33a8.13,8.13,0,0,0,1.95-.2c2.16-.39,2.35-2.93,2.61-5.41l4.7-42.53c.07-.72.33-1.18.72-1.18s.65.26,1,1l20,41,19.18-41c.26-.59.52-1,1-1s.65.52.78,1.76Z"/><path class="cls-2" d="M279.28,234.48c0-10.17,0-12-.13-14.09s-.65-3.26-2.8-3.72a12.39,12.39,0,0,0-2.22-.19c-.26,0-.52-.13-.52-.39s.32-.53,1-.53c1.5,0,3.26,0,4.7.07l2.67.13c.46,0,13.44,0,14.94-.06a17.79,17.79,0,0,0,2.8-.33c.33-.07.59-.33.92-.33s.26.26.26.59-.33,1.24-.52,3.07c-.07.65-.2,3.52-.33,4.3-.06.33-.19.72-.46.72s-.52-.33-.52-.85a6.92,6.92,0,0,0-.39-2.35c-.46-1-1.11-1.82-4.63-2.21-1.11-.14-8.22-.2-8.94-.2-.26,0-.39.2-.39.65v18c0,.45.07.65.39.65.85,0,8.87,0,10.37-.13s2.48-.26,3.07-.92.72-.84,1-.84.33.13.33.52-.33,1.5-.53,3.65c-.13,1.31-.26,3.72-.26,4.18s0,1.24-.45,1.24-.46-.26-.46-.59a6.65,6.65,0,0,0-.26-2.15c-.26-.92-.85-2-3.39-2.29-1.77-.19-8.22-.32-9.33-.32a.41.41,0,0,0-.46.45V246c0,2.22-.06,9.79,0,11.16.2,4.5,1.18,5.35,7.57,5.35,1.69,0,4.56,0,6.26-.72s2.48-2,2.94-4.7c.13-.71.26-1,.58-1s.39.52.39,1-.52,5-.84,6.33c-.46,1.7-1,1.7-3.53,1.7-4.89,0-8.48-.13-11-.2s-4.11-.19-5.09-.19c-.13,0-1.24,0-2.61.06s-2.8.13-3.78.13c-.72,0-1.05-.13-1.05-.52,0-.2.13-.39.53-.39a10,10,0,0,0,1.95-.26c1.31-.26,1.63-1.7,1.9-3.59.32-2.74.32-7.89.32-14.16Z"/><path class="cls-2" d="M333,246c0,6.27,0,11.42.32,14.16.2,1.89.59,3.33,2.55,3.59a28.55,28.55,0,0,0,2.93.26c.39,0,.52.19.52.39s-.32.52-1,.52c-3.59,0-7.7-.19-8-.19s-4.44.19-6.4.19c-.71,0-1-.13-1-.52,0-.2.13-.39.52-.39a10.14,10.14,0,0,0,2-.26c1.3-.26,1.63-1.7,1.89-3.59.33-2.74.33-7.89.33-14.16V218.37l-9.66.13c-4,.07-5.61.52-6.65,2.09a11.56,11.56,0,0,0-1.11,2c-.2.52-.39.65-.65.65s-.33-.19-.33-.58c0-.66,1.31-6.27,1.44-6.79s.39-1.24.65-1.24a12.29,12.29,0,0,0,2.87.78c1.89.2,4.37.33,5.15.33h24.47a25.68,25.68,0,0,0,4.63-.33c1-.13,1.56-.32,1.82-.32s.33.39.33.78c0,2-.2,6.46-.2,7.18s-.19.84-.45.84-.46-.19-.52-1.1l-.07-.72c-.19-2-1.76-3.46-8-3.59l-8.22-.13Z"/><path class="cls-2" d="M364.15,234.48c0-10.17,0-12-.13-14.09s-.65-3.26-2.81-3.72a12.2,12.2,0,0,0-2.21-.19c-.27,0-.53-.13-.53-.39s.33-.53,1-.53c2.93,0,7,.2,7.37.2.72,0,5.67-.2,7.7-.2,4.11,0,8.48.4,11.94,2.88a11.41,11.41,0,0,1,4.5,8.87c0,4.82-2,9.65-7.9,15.07,5.35,6.85,9.79,12.65,13.57,16.7,3.52,3.72,6.33,4.43,8,4.69a15.29,15.29,0,0,0,2.54.2c.33,0,.59.19.59.39,0,.39-.39.52-1.56.52h-4.64c-3.65,0-5.28-.32-7-1.24-2.8-1.5-5.08-4.69-8.8-9.59-2.74-3.58-5.81-8-7.11-9.65a1.06,1.06,0,0,0-.85-.39l-8-.13c-.33,0-.46.19-.46.52V246c0,6.27,0,11.42.32,14.16.2,1.89.59,3.33,2.55,3.59a28.55,28.55,0,0,0,2.93.26c.4,0,.53.19.53.39s-.33.52-1.05.52c-3.59,0-7.7-.19-8-.19-.07,0-4.18.19-6.13.19-.72,0-1.05-.13-1.05-.52,0-.2.13-.39.52-.39a10.14,10.14,0,0,0,2-.26c1.31-.26,1.63-1.7,1.89-3.59.33-2.74.33-7.89.33-14.16Zm5.22,5.68a.84.84,0,0,0,.46.78c1,.59,4,1.05,6.84,1.05a8.49,8.49,0,0,0,4.9-1.24c2.28-1.57,4-5.09,4-10.05,0-8.15-4.31-13-11.29-13a20,20,0,0,0-4.37.39.79.79,0,0,0-.52.79Z"/><path class="cls-2" d="M418.82,246c0,6.27,0,11.42.32,14.16.2,1.89.59,3.33,2.55,3.59a28.55,28.55,0,0,0,2.93.26c.39,0,.52.19.52.39s-.32.52-1,.52c-3.59,0-7.7-.19-8-.19s-4.44.19-6.4.19c-.71,0-1-.13-1-.52,0-.2.13-.39.52-.39a10.14,10.14,0,0,0,2-.26c1.3-.26,1.63-1.7,1.89-3.59.33-2.74.33-7.89.33-14.16V234.48c0-10.17,0-12-.13-14.09s-.79-3.32-2.22-3.65a8.37,8.37,0,0,0-2-.26c-.27,0-.53-.13-.53-.39s.33-.53,1.05-.53c2.15,0,6.26.2,6.59.2s4.43-.2,6.39-.2c.72,0,1,.14,1,.53s-.26.39-.52.39a9.54,9.54,0,0,0-1.63.19c-1.76.33-2.28,1.44-2.41,3.72-.13,2.09-.13,3.92-.13,14.09Z"/><path class="cls-2" d="M441.52,258.75c-6.33-5.68-7.9-13.11-7.9-19.31a26,26,0,0,1,7.31-17.81c3.91-3.91,9.85-7,19.9-7a56.67,56.67,0,0,1,9.46.78,55.49,55.49,0,0,0,6.65,1c.72.07.85.33.85.72s-.2,1.31-.33,3.65c-.13,2.16-.13,5.74-.19,6.72s-.2,1.37-.59,1.37-.52-.45-.52-1.37a9,9,0,0,0-2.74-6.65c-2.29-2-7.31-3.72-13.05-3.72-8.68,0-12.72,2.54-15,4.76-4.77,4.57-5.88,10.37-5.88,17,0,12.46,9.6,23.88,23.55,23.88,4.9,0,8.75-.59,11.36-3.27a12.52,12.52,0,0,0,2.41-5.48c.13-.71.26-1,.65-1s.46.46.46,1a66.08,66.08,0,0,1-1.44,8.35c-.39,1.24-.52,1.37-1.69,1.9-2.61,1-7.57,1.5-11.75,1.5C453.26,265.8,446.67,263.38,441.52,258.75Z"/><path class="cls-3" d="M10.08,282.09c0-5.92,0-7-.08-8.19s-.38-1.9-1.63-2.17a7.65,7.65,0,0,0-1.29-.11c-.15,0-.3-.08-.3-.23s.19-.3.61-.3c1.7,0,4.09.11,4.28.11.91,0,2.4-.11,4.14-.11,6.23,0,7.59,3.79,7.59,5.69,0,3.11-1.78,5-3.57,6.83,2.81.87,6.57,3.57,6.57,8,0,4.06-3.19,8.27-9.68,8.27-.42,0-1.63-.07-2.73-.11s-2.16-.11-2.32-.11-.72,0-1.51,0-1.64.08-2.21.08c-.41,0-.6-.08-.6-.3s.07-.23.3-.23a6.36,6.36,0,0,0,1.14-.15c.76-.16,1-1,1.1-2.09.19-1.6.19-4.59.19-8.24Zm3,.84c0,.26.07.34.26.42a14.57,14.57,0,0,0,2.32.15c2.12,0,2.65-.08,3.45-1a5.85,5.85,0,0,0,1.37-3.83c0-3.15-1.41-6.53-5.13-6.53a8.65,8.65,0,0,0-1.82.19c-.34.08-.45.19-.45.42Zm0,4c0,2.92,0,7.63,0,8.2.12,1.86.12,2.39,1.29,3a9,9,0,0,0,3.34.57,5.07,5.07,0,0,0,5.36-5.39,9.07,9.07,0,0,0-3.69-7.59,6.26,6.26,0,0,0-3.15-1.1c-.49-.08-2.39-.08-3-.08-.15,0-.22.08-.22.27Z"/><path class="cls-3" d="M34,282.09c0-5.92,0-7-.08-8.19s-.38-1.9-1.63-2.17a7.65,7.65,0,0,0-1.29-.11c-.15,0-.31-.08-.31-.23s.19-.3.61-.3c1.71,0,4,.11,4.37.11s2.62-.11,3.75-.11c.42,0,.61.07.61.3s-.15.23-.3.23a6.12,6.12,0,0,0-.95.11c-1,.15-1.33.84-1.41,2.17s-.07,2.27-.07,8.19v5.32c0,5.46,1.21,7.82,2.84,9.37a7.42,7.42,0,0,0,5.74,2.09,8,8,0,0,0,5.95-2.73c1.75-2.17,2.21-5.39,2.21-9.3v-4.75c0-5.92,0-7-.08-8.19s-.38-1.9-1.63-2.17a7.74,7.74,0,0,0-1.29-.11c-.16,0-.31-.08-.31-.23s.19-.3.61-.3c1.71,0,3.8.11,4,.11s2-.11,3.19-.11c.42,0,.61.07.61.3s-.15.23-.3.23a6.12,6.12,0,0,0-1,.11c-1,.23-1.33.84-1.41,2.17s-.07,2.27-.07,8.19v4.06c0,4.1-.46,8.66-3.5,11.35a11.09,11.09,0,0,1-7.81,2.81c-1.29,0-5.13-.15-7.82-2.69-1.86-1.79-3.3-4.44-3.3-10Z"/><path class="cls-3" d="M70.85,288.77c0,3.65,0,6.64.19,8.24.11,1.1.34,1.93,1.48,2.09.53.07,1.37.15,1.71.15s.3.11.3.23-.19.3-.6.3c-2.09,0-4.48-.11-4.67-.11s-2.58.11-3.72.11c-.42,0-.61-.08-.61-.3s.08-.23.3-.23a6.25,6.25,0,0,0,1.14-.15c.76-.16.95-1,1.1-2.09.19-1.6.19-4.59.19-8.24v-6.68c0-5.92,0-7-.07-8.19s-.46-1.94-1.29-2.13a5.19,5.19,0,0,0-1.18-.15c-.15,0-.3-.08-.3-.23s.19-.3.6-.3c1.26,0,3.65.11,3.84.11s2.58-.11,3.72-.11c.41,0,.6.07.6.3s-.15.23-.3.23a6.25,6.25,0,0,0-1,.11c-1,.19-1.33.84-1.4,2.17s-.08,2.27-.08,8.19Z"/><path class="cls-3" d="M87.55,288.85c0,5.58.15,8,.84,8.69s1.59.87,4.55.87c2,0,3.68,0,4.59-1.14a5.12,5.12,0,0,0,1-2.27c0-.31.11-.5.34-.5s.23.16.23.57a23.5,23.5,0,0,1-.57,3.8c-.26.87-.38,1-2.39,1-2.73,0-4.71-.07-6.3-.11s-2.77-.11-3.87-.11c-.15,0-.8,0-1.56,0s-1.59.08-2.16.08c-.42,0-.61-.08-.61-.3s.08-.23.31-.23a6.25,6.25,0,0,0,1.13-.15c.76-.16,1-1,1.11-2.09.18-1.6.18-4.59.18-8.24v-6.68c0-5.92,0-7-.07-8.19s-.38-1.9-1.63-2.17a7.74,7.74,0,0,0-1.29-.11c-.15,0-.31-.08-.31-.23s.19-.3.61-.3c1.71,0,4.1.11,4.29.11s3-.11,4.1-.11c.42,0,.61.07.61.3s-.16.23-.31.23a9.76,9.76,0,0,0-1.25.11c-1.1.19-1.41.84-1.48,2.17s-.08,2.27-.08,8.19Z"/><path class="cls-3" d="M106.84,282.09c0-5.92,0-7-.08-8.19s-.38-1.9-1.63-2.17a7.65,7.65,0,0,0-1.29-.11c-.15,0-.3-.08-.3-.23s.19-.3.6-.3c1.71,0,4.1.11,4.29.11.46,0,2.85-.11,5.12-.11,3.76,0,10.71-.34,15.22,4.32a13.57,13.57,0,0,1,3.68,9.64,15.54,15.54,0,0,1-4.09,10.71c-1.64,1.7-5.05,4.36-11.5,4.36-1.64,0-3.65-.11-5.28-.23s-3-.22-3.15-.22-.72,0-1.52,0-1.63.08-2.2.08c-.42,0-.61-.08-.61-.3s.08-.23.31-.23a6.48,6.48,0,0,0,1.14-.15c.76-.16.94-1,1.1-2.09.19-1.6.19-4.59.19-8.24Zm3.18,4.1c0,4,0,7.52.08,8.24a8.39,8.39,0,0,0,.42,2.88c.49.72,2,1.52,6.45,1.52a12.73,12.73,0,0,0,9-3.53c2-1.94,3-5.58,3-9.07a13.59,13.59,0,0,0-3.64-9.56c-3.57-3.76-7.9-4.29-12.42-4.29a10.24,10.24,0,0,0-2.46.26.7.7,0,0,0-.46.76c0,1.29,0,5.16,0,8.09Z"/><path class="cls-3" d="M144.45,288.77c0,3.65,0,6.64.19,8.24.12,1.1.35,1.93,1.48,2.09.53.07,1.37.15,1.71.15s.31.11.31.23-.2.3-.61.3c-2.09,0-4.48-.11-4.67-.11s-2.58.11-3.72.11c-.42,0-.61-.08-.61-.3s.08-.23.31-.23a6.48,6.48,0,0,0,1.14-.15c.75-.16.94-1,1.1-2.09.19-1.6.19-4.59.19-8.24v-6.68c0-5.92,0-7-.08-8.19s-.46-1.94-1.29-2.13a5.19,5.19,0,0,0-1.18-.15c-.15,0-.3-.08-.3-.23s.19-.3.61-.3c1.25,0,3.64.11,3.83.11s2.58-.11,3.72-.11c.42,0,.61.07.61.3s-.16.23-.31.23a6.39,6.39,0,0,0-.95.11c-1,.19-1.32.84-1.4,2.17s-.08,2.27-.08,8.19Z"/><path class="cls-3" d="M159,294.62c.08,3.11.46,4.1,1.48,4.4a8.36,8.36,0,0,0,1.9.23c.19,0,.3.07.3.23s-.22.3-.68.3c-2.16,0-3.68-.11-4-.11s-1.94.11-3.65.11c-.37,0-.6,0-.6-.3s.11-.23.3-.23a5.5,5.5,0,0,0,1.56-.23c.95-.27,1.13-1.37,1.13-4.82l0-21.75c0-1.48.12-1.89.42-1.89s1,.83,1.33,1.21c.57.65,6.22,6.76,12.07,13,3.75,4,7.89,8.65,9.11,9.9l-.42-19.28c0-2.46-.31-3.3-1.48-3.6a10.29,10.29,0,0,0-1.86-.19c-.27,0-.31-.12-.31-.27s.31-.26.76-.26c1.71,0,3.53.11,3.95.11s1.67-.11,3.23-.11c.41,0,.68,0,.68.26s-.15.27-.42.27a3.47,3.47,0,0,0-.91.11c-1.25.27-1.4,1.1-1.4,3.38l-.08,22.24c0,2.5-.07,2.69-.34,2.69s-.76-.41-2.77-2.42c-.42-.38-5.88-6-9.91-10.29-4.4-4.74-8.69-9.53-9.9-10.89Z"/><path class="cls-3" d="M211.37,290.1c0-3.07-.19-3.49-1.71-3.91a7.65,7.65,0,0,0-1.29-.11c-.15,0-.3-.08-.3-.23s.19-.3.61-.3c1.7,0,4.1.11,4.29.11s2.58-.11,3.72-.11c.41,0,.6.07.6.3s-.15.23-.3.23a6.25,6.25,0,0,0-1,.11c-1,.19-1.33.84-1.4,2.17s-.08,2.35-.08,3.94v4.25c0,1.71,0,1.79-.49,2.05a18.79,18.79,0,0,1-8,1.71c-2.88,0-8.27-.38-12.49-4.06A14.83,14.83,0,0,1,189,285.43c0-6.07,3-10.36,6.34-12.48s7.17-2.39,10.09-2.39a32.85,32.85,0,0,1,5.81.64,18.94,18.94,0,0,0,3.07.38c.38,0,.46.19.46.34a47.38,47.38,0,0,0-.27,5.39c0,.61-.07.8-.34.8s-.23-.23-.27-.57a5.71,5.71,0,0,0-.79-2.51c-1-1.44-4-3.07-8.92-3.07a12.11,12.11,0,0,0-8.12,2.51c-2.2,1.74-3.76,5.2-3.76,9.64a15.46,15.46,0,0,0,4,10.51,13.83,13.83,0,0,0,9.95,4.06,10.32,10.32,0,0,0,4.32-.8,1.36,1.36,0,0,0,.76-1.33Z"/><path class="cls-3" d="M238.67,296.21A14.54,14.54,0,0,1,234.08,285a15.11,15.11,0,0,1,4.25-10.36c2.27-2.28,5.73-4.06,11.57-4.06a32.71,32.71,0,0,1,5.51.45,32.67,32.67,0,0,0,3.87.57c.41,0,.49.19.49.42s-.11.76-.19,2.12-.08,3.34-.11,3.91-.12.8-.34.8-.31-.27-.31-.8a5.28,5.28,0,0,0-1.59-3.87C255.9,273,253,272,249.64,272c-5,0-7.4,1.48-8.73,2.77-2.77,2.66-3.42,6-3.42,9.9a13.7,13.7,0,0,0,13.7,13.89c2.85,0,5.09-.34,6.61-1.89a7.29,7.29,0,0,0,1.4-3.19c.08-.42.15-.57.38-.57s.27.27.27.57a39.68,39.68,0,0,1-.84,4.86c-.23.72-.3.79-1,1.1a22.16,22.16,0,0,1-6.83.87C245.5,300.31,241.67,298.91,238.67,296.21Z"/><path class="cls-3" d="M279.21,270.56c8.54,0,14.91,5.38,14.91,14.23,0,8.5-6,15.52-15.14,15.52-10.4,0-14.73-8.08-14.73-14.91C264.25,279.25,268.73,270.56,279.21,270.56Zm.79,28.31c3.42,0,10.48-2,10.48-13,0-9.11-5.54-14-11.54-14-6.34,0-11.08,4.17-11.08,12.48C267.86,293.18,273.17,298.87,280,298.87Z"/><path class="cls-3" d="M331.17,294.92c.15,1.37.42,3.49,2.05,4a8.06,8.06,0,0,0,2.47.35c.19,0,.3,0,.3.19s-.34.34-.8.34c-.83,0-4.93,0-6.34-.15-.87-.08-1.06-.19-1.06-.38s.08-.23.27-.27.23-.68.15-1.37L326.39,278h-.12L317,297.69c-.8,1.67-.91,2-1.26,2s-.45-.38-1.17-1.74c-1-1.86-4.25-8.43-4.44-8.81-.34-.68-4.6-9.79-5-10.81h-.16L303.43,296c0,.6,0,1.29,0,1.93a1.23,1.23,0,0,0,1,1.18,7.06,7.06,0,0,0,1.44.19c.15,0,.3.07.3.19s-.23.34-.68.34c-1.41,0-3.23-.11-3.53-.11s-2.16.11-3.19.11c-.38,0-.64-.08-.64-.34s.18-.19.38-.19a4.59,4.59,0,0,0,1.13-.12c1.26-.22,1.37-1.7,1.52-3.15l2.73-24.74c0-.42.19-.68.42-.68s.38.15.57.57L316.44,295l11.16-23.84c.15-.34.31-.6.57-.6s.38.3.46,1Z"/><path class="cls-3" d="M342.79,282.09c0-5.92,0-7-.08-8.19s-.38-1.9-1.63-2.17a7.65,7.65,0,0,0-1.29-.11c-.15,0-.3-.08-.3-.23s.19-.3.61-.3c1.7,0,4,.11,4.28.11.84,0,3-.11,4.79-.11,4.74,0,6.45,1.59,7.05,2.16a6.59,6.59,0,0,1,1.9,4.52c0,5.39-3.94,9-9.33,9a5.36,5.36,0,0,1-.8,0c-.19,0-.42-.07-.42-.26s.23-.35,1-.35a6.29,6.29,0,0,0,6.56-6.18,8.06,8.06,0,0,0-2.12-5.85,6.58,6.58,0,0,0-5.2-1.89,4.7,4.7,0,0,0-1.63.22c-.23.08-.31.35-.31.73v15.59c0,3.65,0,6.64.19,8.24.12,1.1.34,1.93,1.48,2.09.53.07,1.37.15,1.71.15s.3.11.3.23-.19.3-.6.3c-2.09,0-4.48-.11-4.67-.11s-2.51.11-3.65.11c-.41,0-.6-.08-.6-.3s.07-.23.3-.23a6.36,6.36,0,0,0,1.14-.15c.76-.16.95-1,1.1-2.09.19-1.6.19-4.59.19-8.24Z"/><path class="cls-3" d="M370.92,272c.45-1.26.6-1.48.83-1.48s.38.19.84,1.36c.57,1.44,6.52,17.12,8.84,22.89,1.37,3.38,2.47,4,3.26,4.21a4.92,4.92,0,0,0,1.52.23c.23,0,.38,0,.38.23s-.34.3-.76.3-3.34,0-6-.08c-.72,0-1.14,0-1.14-.26s.12-.23.27-.27.46-.42.23-1l-3.53-9.34a.34.34,0,0,0-.34-.23H367.2a.4.4,0,0,0-.38.31l-2.28,6.71a8.06,8.06,0,0,0-.53,2.55c0,.76.8,1.1,1.44,1.1h.38c.27,0,.38.07.38.23s-.23.3-.57.3c-.91,0-2.54-.11-3-.11s-2.5.11-4.29.11c-.49,0-.72-.08-.72-.3s.15-.23.34-.23a10.75,10.75,0,0,0,1.1-.08c1.75-.23,2.51-1.67,3.19-3.57Zm3.94,15.18c.19,0,.19-.12.16-.27l-3.61-10.25q-.29-.85-.57,0L367.5,287c-.07.19,0,.27.11.27Z"/><path class="cls-3" d="M393.05,294.62c.07,3.11.45,4.1,1.48,4.4a8.3,8.3,0,0,0,1.9.23c.19,0,.3.07.3.23s-.23.3-.68.3c-2.17,0-3.69-.11-4-.11s-1.93.11-3.64.11c-.38,0-.61,0-.61-.3s.12-.23.31-.23a5.44,5.44,0,0,0,1.55-.23c.95-.27,1.14-1.37,1.14-4.82l0-21.75c0-1.48.11-1.89.42-1.89s.95.83,1.32,1.21c.57.65,6.23,6.76,12.07,13,3.76,4,7.9,8.65,9.11,9.9l-.42-19.28c0-2.46-.3-3.3-1.48-3.6a10.21,10.21,0,0,0-1.86-.19c-.26,0-.3-.12-.3-.27s.3-.26.76-.26c1.71,0,3.53.11,3.95.11s1.67-.11,3.22-.11c.42,0,.69,0,.69.26s-.16.27-.42.27a3.43,3.43,0,0,0-.91.11c-1.26.27-1.41,1.1-1.41,3.38l-.07,22.24c0,2.5-.08,2.69-.34,2.69s-.76-.41-2.77-2.42c-.42-.38-5.89-6-9.91-10.29-4.4-4.74-8.69-9.53-9.91-10.89Z"/><path class="cls-3" d="M431.16,288.77c0,3.65,0,6.64.19,8.24.11,1.1.34,1.93,1.48,2.09.53.07,1.36.15,1.7.15s.31.11.31.23-.19.3-.61.3c-2.09,0-4.48-.11-4.67-.11s-2.58.11-3.72.11c-.41,0-.6-.08-.6-.3s.07-.23.3-.23a6.36,6.36,0,0,0,1.14-.15c.76-.16.95-1,1.1-2.09.19-1.6.19-4.59.19-8.24v-6.68c0-5.92,0-7-.08-8.19s-.45-1.94-1.29-2.13a5.11,5.11,0,0,0-1.17-.15c-.15,0-.31-.08-.31-.23s.19-.3.61-.3c1.25,0,3.64.11,3.83.11s2.58-.11,3.72-.11c.42,0,.61.07.61.3s-.15.23-.3.23a6.12,6.12,0,0,0-.95.11c-1,.19-1.33.84-1.41,2.17s-.07,2.27-.07,8.19Z"/><path class="cls-3" d="M444.67,282.09c0-5.92,0-7-.07-8.19s-.38-1.9-1.64-2.17a7.56,7.56,0,0,0-1.29-.11c-.15,0-.3-.08-.3-.23s.19-.3.61-.3c.87,0,1.89,0,2.73,0l1.56.07c.26,0,7.81,0,8.69,0a9,9,0,0,0,1.63-.19c.19,0,.34-.19.53-.19s.15.16.15.35-.19.72-.3,1.78c0,.38-.12,2-.19,2.5,0,.19-.12.42-.27.42s-.3-.19-.3-.49A4.1,4.1,0,0,0,456,274c-.26-.61-.64-1.06-2.69-1.29-.65-.07-4.79-.11-5.2-.11-.15,0-.23.11-.23.38v10.47c0,.27,0,.38.23.38.49,0,5.16,0,6-.07s1.44-.16,1.79-.54.41-.49.57-.49.18.08.18.3-.18.88-.3,2.13c-.08.76-.15,2.16-.15,2.43s0,.72-.27.72-.26-.15-.26-.34a3.89,3.89,0,0,0-.15-1.25c-.16-.54-.5-1.18-2-1.33-1-.12-4.78-.19-5.42-.19a.24.24,0,0,0-.27.26v3.34c0,1.29,0,5.7,0,6.49.11,2.62.68,3.12,4.4,3.12a10.86,10.86,0,0,0,3.65-.42c1-.42,1.44-1.18,1.7-2.73.08-.42.16-.57.35-.57s.22.3.22.57-.3,2.88-.49,3.68c-.27,1-.57,1-2.05,1-2.85,0-4.93-.07-6.41-.11s-2.39-.11-3-.11c-.08,0-.72,0-1.52,0s-1.63.08-2.2.08-.61-.08-.61-.3.08-.23.3-.23a6.36,6.36,0,0,0,1.14-.15c.76-.16.95-1,1.1-2.09.19-1.6.19-4.59.19-8.24Z"/><path class="cls-3" d="M465.4,299.29c-.54-.27-.57-.42-.57-1.45,0-1.89.15-3.41.19-4,0-.42.11-.61.3-.61s.27.12.27.42a7,7,0,0,0,.11,1.41c.57,2.8,3.07,3.87,5.62,3.87a5.06,5.06,0,0,0,5.42-5.05c0-2.62-1.1-4.14-4.36-6.83l-1.71-1.41c-4-3.3-4.93-5.65-4.93-8.23,0-4.06,3-6.83,7.85-6.83a14.49,14.49,0,0,1,3.53.38,6.37,6.37,0,0,0,1.33.19c.31,0,.38.07.38.26s-.15,1.44-.15,4c0,.61-.08.88-.27.88s-.26-.19-.3-.5a6.93,6.93,0,0,0-.49-1.89c-.23-.42-1.25-2-4.75-2-2.62,0-4.66,1.64-4.66,4.41,0,2.16,1,3.53,4.63,6.37l1.06.84c4.48,3.53,5.54,5.88,5.54,8.92a7.87,7.87,0,0,1-3.23,6.3,10,10,0,0,1-5.73,1.59A11.61,11.61,0,0,1,465.4,299.29Z"/><g class="cls-4"><polygon class="cls-5" points="182.68 147.58 182.68 79.55 165.34 71.82 165.34 70.12 182.86 62.21 187.2 44.68 196.81 40.91 200.96 54.85 249.39 45.81 250.71 53.73 254.1 122.14 281.81 115.35 283.88 160.21 258.82 179.81 244.12 185.65 216.98 180.75 212.08 175.29 212.08 81.43 246 59.38 249.01 59.38 248.83 53.91 246.38 53.91 200.39 73.89 200.58 167.75 182.11 150.22 182.68 147.58"/><polygon class="cls-6" points="210.81 102.67 210.82 81.19 246.84 57.8 269.73 62.73 269.43 84.86 248.91 81.6 210.81 102.67"/><polygon class="cls-7" points="245.21 79.69 239.98 82.46 239.94 64.79 245.25 61.49 245.21 79.69 245.21 79.69"/><polygon class="cls-7" points="236.58 85.05 231.39 88.02 231.35 70.34 236.76 66.96 236.62 82.91 236.58 85.05"/><polygon class="cls-7" points="227.72 90.64 222.47 93.66 222.43 75.99 227.72 72.8 227.72 89.82 227.72 90.64"/><polygon class="cls-7" points="218.86 95.79 213.59 98.83 213.55 81.81 219.05 78.45 218.82 94.41 218.86 95.79"/><polygon class="cls-8" points="269.46 84.81 252.22 91.71 210.81 102.67 248.91 81.6 269.46 84.81"/><path class="cls-6" d="M198.86,53.64l-3.7,1.54-2.74-10.55,3.71-1.51,2.73,10.52ZM248.6,87.92l19.83,7.5-.7,20.45h0l8.73-2.28h0l5.16-1.35h0l21.72,9.16v63.69H211.11l-.32-82.74ZM246,157.79l-5.16.5V140.36l5.16-.84v18.27Zm-8.72.85-5.16.51V141.79l5.16-.84v17.69Zm-8.73.85-5.16.5V143.22l5.16-.85v17.12Zm-8.73.85-5.16.51V144.64l5.16-.84v16.54Zm-5.16,4.51,5.16-.42v17h-5.16V164.85Zm8.73-.71,5.16-.42v17.72H223.4v-17.3Zm8.73-.71,5.16-.42v18.43h-5.16v-18Zm8.72-.71,5.16-.42v19.14h-5.16V162.72ZM246,135l-5.16.93V118l5.16-1.27V135Zm-8.72,1.57-5.16.92V120.15l5.16-1.27v17.7Zm-8.73,1.57-5.16.92V122.29l5.16-1.27v17.13Zm-8.73,1.56-5.16.93v-16.2l5.16-1.27v16.54ZM246,112.23l-5.16,1.35V95.65L246,94v18.27Zm-8.72,2.28-5.16,1.35V98.51l5.16-1.69v17.69Zm-8.73,2.29-5.16,1.35V101.37l5.16-1.69V116.8Zm-8.73,2.29-5.16,1.34v-16.2l5.16-1.69v16.55Zm61.82,62.35V162.3l-5.16.42v18.72Zm-8.73,0V163l-5.16.42v18Zm-8.72,0V163.72l-5.16.42v17.3ZM259,122.29v16.78l5.16-.92V121L259,122.29Zm8.72-2.14V137.5l5.16-.93V118.88l-5.16,1.27Zm8.73-2.14v17.92l5.16-.92V116.74L276.49,118ZM259,143.22V160l5.16-.5V142.37l-5.16.85Zm8.72-1.43v17.36l5.16-.51V141l-5.16.84Zm8.73-1.43v17.93l5.16-.5V139.52l-5.16.84Zm-95.1-72.63v9.53L176.52,75l4.87-7.31Zm86.34-1h0m-15.83,5V42L202.35,52.9,198.48,38h0l-12.29,5.1-4.61,17.75-17.43,7.24V73.3l17.24,7.86h0V185.08h21V74.47l45.93-18.86V72.8ZM202.41,70.3V58.71l7.41,8.5-7.41,3.09Zm-3.57-12.47v14l-3.56,1.48v-14l3.56-1.46Zm0,18.1V93.55l-3.56-1.26V77.4l3.56-1.47Zm-7.13-15.18v14L185,77.55v-14l6.75-2.76Zm0,18.12v10L186,81.21l5.71-2.34ZM185,181.44V170.53l3.6,10.91Zm0-17.32V154l3.84,9.88-3.84.27Zm0-17.31v-9.39l4.14,8.8-4.14.59Zm0-17.33v-9.12l4.45,8.18-4.45.94Zm0-17.31v-8.81l4.65,7.49L185,112.17Zm0-17.32v-9l5.3,7.09L185,94.85Zm6.75,1.64v10.85l-5.52-8.9,5.52-2Zm0,17.72v10.94l-5.16-9.48,5.16-1.46Zm0,17.72v11.28L186.88,133l4.83-1Zm0,17.71v11.64l-4.29-11,4.29-.61Zm0,17.72v12l-3.88-11.75,3.88-.27Zm3.57,14.08V167.32l3.56.26v13.86Zm0-17.83v-14l3.56.51v13.78l-3.56-.25Zm0-17.83v-14l3.56.76v13.7l-3.56-.5Zm0-17.83V114.07l3.56,1v13.64l-3.56-.76Zm0-17.83V96.31l3.56,1.26v13.56l-3.56-1Zm19.37-44.91V55.73l6.06,7-6.06,2.52Zm12.26-5.1V52.66l4.76,5.47-4.76,2Zm11.82-4.91V49.9h0l3.38,3.89-3.39,1.41Zm4.17-6.06,2.74-.51v3.66l-2.74-3.15Zm-7.81,7.37-4.46-5.11,4.46-.83v5.94Zm-11.82,3.56-5.5-6.31,5.5-1v7.32ZM211,55v8l-6-6.91L211,55Zm-21.9-9,2.72,10.51-6.12,2.55,3.4-13.06Zm-16,27.46-6-2.73,10.73-4.38-4.75,7.11Z"/></g><polygon class="cls-5" points="276.54 48.22 277.57 51.45 280.7 50.3 278.89 53.11 281.78 54.83 278.5 55.09 278.91 58.5 276.54 56.02 274.19 58.45 274.65 55.09 271.28 54.83 274.19 53.11 272.33 50.27 275.51 51.45 276.54 48.22"/><polygon class="cls-5" points="295.91 78.85 296.94 82.08 300.07 80.93 298.26 83.75 301.14 85.46 297.87 85.73 298.28 89.13 295.91 86.66 293.56 89.08 294.02 85.73 290.64 85.46 293.56 83.75 291.7 80.91 294.88 82.08 295.91 78.85"/><polygon class="cls-5" points="313.09 43.08 314.12 46.31 317.25 45.16 315.44 47.97 318.33 49.68 315.05 49.95 315.46 53.35 313.09 50.88 310.74 53.31 311.21 49.95 307.83 49.68 310.74 47.97 308.88 45.13 312.06 46.31 313.09 43.08"/><polygon class="cls-5" points="295.84 27.3 296.87 30.53 300 29.38 298.19 32.19 301.07 33.91 297.8 34.18 298.21 37.58 295.84 35.11 293.49 37.53 293.95 34.18 290.57 33.91 293.49 32.19 291.63 29.36 294.81 30.53 295.84 27.3"/><polygon class="cls-5" points="305.47 64.31 303.57 63.21 301.69 64.31 302.14 62.16 300.59 60.64 302.74 60.52 303.6 58.5 304.47 60.58 306.62 60.68 305.02 62.18 305.47 64.31"/><path class="cls-3" d="M141.65,25.57c65.55-34,130.85-34.23,195.87,0a1.22,1.22,0,0,1,.65,1c4.57,92.08-35.11,141-98.17,167a1.17,1.17,0,0,1-.88,0C179.3,172,140.35,124.12,141,26.65A1.23,1.23,0,0,1,141.65,25.57Z"/><path class="cls-9" d="M240.5,7.39V183l-2,1.42c-54.59-20.07-90.06-64.27-89.49-153.6a1.24,1.24,0,0,1,.65-1.08Q194.56,6.49,239.29,6.18h1.21V7.39"/><path class="cls-10" d="M241.71,6.19q44.37.36,88.55,23.57a1.22,1.22,0,0,1,.65,1c4.15,84-31.64,129-88.73,153.23a1.22,1.22,0,0,1-1.68-1.11V6.17Z"/><g class="cls-11"><polygon class="cls-5" points="182.76 147.61 182.76 79.39 165.37 71.64 165.37 69.94 182.94 62 187.29 44.42 196.93 40.64 201.09 54.63 249.66 45.56 250.98 53.49 254.38 122.1 282.16 115.29 284.24 160.27 259.11 179.93 244.37 185.79 217.15 180.87 212.24 175.39 212.24 81.28 246.26 59.16 249.28 59.16 249.09 53.68 246.63 53.68 200.52 73.72 200.71 167.83 182.19 150.26 182.76 147.61"/><polygon class="cls-6" points="210.97 102.58 210.99 81.03 247.1 57.59 270.05 62.52 269.75 84.72 249.17 81.44 210.97 102.58"/><polygon class="cls-7" points="245.46 79.53 240.22 82.31 240.18 64.59 245.5 61.28 245.46 79.53 245.46 79.53"/><polygon class="cls-7" points="236.81 84.91 231.61 87.88 231.56 70.16 237 66.76 236.85 82.76 236.81 84.91"/><polygon class="cls-7" points="227.93 90.51 222.66 93.54 222.62 75.82 227.93 72.62 227.93 89.69 227.93 90.51"/><polygon class="cls-7" points="219.04 95.68 213.76 98.72 213.72 81.66 219.23 78.29 219.01 94.29 219.04 95.68"/><polygon class="cls-12" points="269.79 84.67 252.49 91.58 210.97 102.58 249.17 81.44 269.79 84.67"/><path class="cls-6" d="M199,53.41,195.28,55l-2.75-10.57,3.72-1.52L199,53.41Zm49.88,34.38,19.88,7.51-.7,20.51h0l8.75-2.29h0l5.18-1.35h0l21.77,9.18v63.87H211.27l-.32-83Zm-2.6,70.05-5.17.51v-18l5.17-.84v18.31Zm-8.75.86-5.18.51V141.8l5.18-.84V158.7Zm-8.75.86-5.18.5V143.23l5.18-.84v17.17Zm-8.76.85-5.17.5V144.66l5.17-.84v16.59Zm-5.17,4.52,5.17-.42v17.05h-5.17V164.93Zm8.75-.72,5.18-.41v17.76h-5.18V164.21Zm8.75-.71,5.18-.42v18.48h-5.18V163.5Zm8.76-.71,5.17-.42v19.19H241.1V162.79ZM246.27,135l-5.17.93V118l5.17-1.27V135Zm-8.75,1.57-5.18.94V120.1l5.18-1.27v17.74Zm-8.75,1.58-5.18.93V122.25l5.18-1.27v17.17ZM220,139.72l-5.17.93V124.4l5.17-1.27v16.59Zm26.26-27.56-5.17,1.35v-18l5.17-1.69v18.32Zm-8.75,2.29-5.18,1.35V98.4l5.18-1.69v17.74Zm-8.75,2.29-5.18,1.36V101.27l5.18-1.69v17.16ZM220,119l-5.17,1.35V104.14l5.17-1.7V119Zm62,62.52V162.37l-5.18.42v18.77Zm-8.76,0V163.08l-5.17.42v18.06Zm-8.75,0V163.79l-5.17.42v17.35Zm-5.17-59.31v16.83l5.17-.93V121l-5.17,1.27Zm8.75-2.15v17.41l5.17-.94V118.83l-5.17,1.27Zm8.75-2.15v18L282,135V116.68L276.83,118Zm-17.5,25.28v16.83l5.17-.51V142.39l-5.17.84Zm8.75-1.43v17.41l5.17-.51V141l-5.17.84Zm8.75-1.43v18l5.18-.51V139.53l-5.18.84ZM181.47,67.54V77.1l-4.88-2.23,4.88-7.33Zm86.58-1h0m-15.88,5V41.73L202.49,52.67l-3.89-15h0l-12.32,5.12-4.62,17.8-17.48,7.26v5.24L181.47,81h0v104.2h21.08V74.29l46-18.91V72.62Zm-49.62-1.38V58.49L210,67l-7.43,3.09ZM199,57.61v14l-3.57,1.49v-14L199,57.61Zm0,18.15V93.43l-3.57-1.26V77.23L199,75.76Zm-7.15-15.22v14L185,77.39V63.31l6.78-2.77Zm0,18.17v10l-5.73-7.65,5.73-2.35ZM185,181.56V170.62l3.62,10.94Zm0-17.36V154l3.86,9.92-3.86.27Zm0-17.37v-9.41l4.16,8.83-4.16.58Zm0-17.37v-9.15l4.47,8.21-4.47.94Zm0-17.36v-8.83l4.67,7.51L185,112.1Zm0-17.36v-9l5.32,7.11L185,94.74Zm6.78,1.64v10.88l-5.54-8.93,5.54-2Zm0,17.76v11l-5.18-9.5,5.18-1.47Zm0,17.77v11.32L187,132.94l4.85-1Zm0,17.77v11.67l-4.31-11.06,4.31-.61Zm0,17.76V179.5l-3.89-11.78,3.89-.28Zm3.58,14.12V167.41l3.57.25v13.9Zm0-17.88V149.61l3.57.5v13.83l-3.57-.26Zm0-17.88v-14l3.57.76v13.75l-3.57-.51Zm0-17.87V114l3.57,1v13.67l-3.57-.75Zm0-17.89V96.2L199,97.46v13.59l-3.57-1Zm19.42-45V55.5l6.08,7L214.82,65Zm12.29-5.11V52.43l4.78,5.48-4.78,2ZM239,55V49.66h0l3.39,3.9L239,55Zm4.18-6.07,2.75-.51v3.66l-2.75-3.15Zm-7.83,7.39-4.47-5.13,4.47-.83v6Zm-11.86,3.57L218,53.53l5.51-1v7.34Zm-12.29-5.08v8l-6-6.94,6-1.11Zm-22-9,2.74,10.54-6.14,2.55,3.4-13.09Zm-16,27.53-6-2.73L178,66.2l-4.76,7.13Z"/></g><polygon class="cls-5" points="276.88 47.97 277.91 51.21 281.05 50.06 279.24 52.88 282.13 54.6 278.84 54.87 279.26 58.28 276.88 55.8 274.52 58.23 274.99 54.87 271.6 54.6 274.52 52.88 272.66 50.03 275.85 51.21 276.88 47.97"/><polygon class="cls-5" points="296.3 78.69 297.33 81.93 300.47 80.78 298.66 83.6 301.55 85.32 298.26 85.59 298.68 89 296.3 86.52 293.94 88.95 294.41 85.59 291.02 85.32 293.94 83.6 292.08 80.75 295.27 81.93 296.3 78.69"/><polygon class="cls-5" points="313.53 42.81 314.56 46.05 317.71 44.9 315.89 47.72 318.79 49.44 315.5 49.71 315.91 53.12 313.53 50.65 311.18 53.08 311.64 49.71 308.26 49.44 311.18 47.72 309.31 44.88 312.5 46.05 313.53 42.81"/><polygon class="cls-5" points="296.23 27 297.26 30.24 300.4 29.08 298.59 31.91 301.48 33.62 298.19 33.89 298.61 37.3 296.23 34.83 293.88 37.26 294.34 33.89 290.95 33.62 293.88 31.91 292.01 29.06 295.2 30.24 296.23 27"/><polygon class="cls-5" points="305.89 64.11 303.99 63.01 302.11 64.11 302.55 61.95 300.99 60.43 303.15 60.31 304.01 58.29 304.89 60.37 307.04 60.47 305.44 61.97 305.89 64.11"/></g></g></svg>