<?xml version="1.0" encoding="utf-8"?>
<!-- Generator: Adobe Illustrator 25.2.3, SVG Export Plug-In . SVG Version: 6.00 Build 0)  -->
<svg version="1.1" id="Capa_1" xmlns="http://www.w3.org/2000/svg" xmlns:xlink="http://www.w3.org/1999/xlink" x="0px" y="0px"
	 viewBox="0 0 190 120" style="enable-background:new 0 0 190 120;" xml:space="preserve">
<style type="text/css">
	.st0{fill:none;stroke:#C6C6C5;stroke-width:0.75;stroke-miterlimit:10;}
	.st1{fill:#213047;}
	.st2{fill:#E20613;}
	.st3{fill:#6F6F6E;}
	.st4{fill:none;stroke:#C6C6C5;stroke-width:2;stroke-miterlimit:10;}
	.st5{fill:#1D1D1B;}
</style>
<g>
	<line class="st0" x1="30.74" y1="32.21" x2="159.26" y2="32.21"/>
	<line class="st0" x1="4" y1="87.79" x2="186" y2="87.79"/>
	<g>
		<path d="M114.8,69.82h-7.77h-0.87c-1.25,2.4-3.01,4.08-5.25,5.06c-0.08,0.04-0.16,0.08-0.24,0.11l2.83,8.18
			c0.31-0.1,0.62-0.22,0.93-0.33c1.59-0.59,3.11-1.33,4.55-2.26c0.99-0.65,1.92-1.36,2.77-2.14c1.34-1.23,2.49-2.64,3.47-4.21
			c0.84-1.35,1.56-2.81,2.14-4.41h-1.95H114.8z"/>
		<path d="M108.97,40.96c-0.39-0.25-0.78-0.48-1.18-0.71c-3.56-2.04-7.56-3.09-12-3.12c-0.08,0-0.15-0.01-0.23-0.01
			c-2.71,0-5.24,0.38-7.6,1.12l0.89,2.57l1.49,4.31l0.43,1.25c1.01-0.32,2.08-0.53,3.21-0.64c0.52-0.05,1.04-0.08,1.58-0.08
			c2.09,0,3.92,0.36,5.5,1.07c1.5,0.68,2.77,1.67,3.81,2.99c0.48,0.61,0.91,1.28,1.29,2.02h5.76h5.43c-0.8-2.22-1.87-4.19-3.19-5.94
			C112.73,43.91,111,42.29,108.97,40.96z"/>
		<path d="M96.08,75.89c-0.17,0.01-0.34,0.01-0.52,0.01c-1.47,0-2.84-0.18-4.11-0.52c-1.89-0.5-3.57-1.36-5.03-2.6
			c-0.37-0.32-0.73-0.65-1.08-1.01c-2-2.1-3.23-4.73-3.71-7.88c0,0,0,0,0-0.01c-0.09-0.6-0.15-1.23-0.18-1.88
			c-0.02-0.4-0.04-0.8-0.04-1.22c0-1.31,0.12-2.53,0.34-3.69c0.37-2,1.06-3.78,2.08-5.34c0.45-0.69,0.95-1.35,1.53-1.95
			c0.42-0.44,0.86-0.83,1.31-1.19l-0.33-0.96l-2.61-7.56c-1.75,0.99-3.4,2.23-4.92,3.71c-0.42,0.41-0.81,0.83-1.18,1.25
			c-3.58,4.03-5.46,8.94-5.65,14.74c-0.01,0.32-0.02,0.63-0.02,0.95c0,0.08,0,0.16,0.01,0.24c0.03,3.43,0.63,6.55,1.81,9.37
			c1.14,2.72,2.8,5.17,5.01,7.33c0.49,0.48,1,0.93,1.51,1.36c0.21,0.18,0.42,0.34,0.64,0.51c0.27,0.21,0.55,0.42,0.83,0.62
			c3.95,2.79,8.56,4.2,13.83,4.2c0.23,0,0.45-0.02,0.67-0.02c0.92-0.02,1.83-0.08,2.71-0.19l-2.71-7.84L96.08,75.89z"/>
		<polygon class="st2" points="33.84,70.47 33.82,70.44 33.82,70.44 30.84,63.55 28.1,57.23 25.53,51.3 22.99,45.44 22.04,43.24 
			19,36.22 15.9,36.22 8.6,36.22 8.6,41.51 8.6,53.09 8.6,54.09 8.6,68.41 8.6,68.82 8.6,70.13 8.6,82.43 17.94,82.43 17.94,82.39 
			17.94,70.1 17.94,61.51 17.94,58.04 17.94,56.31 17.94,53.37 18.92,55.66 19.88,57.88 24.49,68.58 25.58,71.13 26.27,72.73 
			30.45,82.43 32.35,82.43 35.79,82.43 37.13,82.43 38.07,80.25 37.38,78.65 		"/>
		<polygon class="st2" points="49.77,36.22 48.65,36.22 48.1,37.49 41.46,52.82 39.96,56.28 39.96,56.28 37.3,62.43 36.34,64.63 
			38.62,69.88 39.86,72.73 40.58,74.41 42.13,70.82 42.96,68.91 47.1,59.28 49.71,53.23 49.71,61.48 49.71,66.41 49.71,80.65 
			49.71,80.84 49.71,82.43 53.18,82.43 58.98,82.43 58.98,81.9 58.98,66.55 58.98,57.27 58.98,46.42 58.98,36.22 50.44,36.22 		"/>
		<polygon points="156.25,70.47 156.24,70.44 156.24,70.44 153.26,63.55 150.52,57.23 147.95,51.3 145.41,45.44 144.45,43.24 
			141.42,36.22 138.32,36.22 131.02,36.22 131.02,41.51 131.02,53.09 131.02,54.09 131.02,68.41 131.02,68.82 131.02,70.13 
			131.02,82.43 140.36,82.43 140.36,82.39 140.36,70.1 140.36,61.51 140.36,58.04 140.36,56.31 140.36,53.37 141.34,55.66 
			142.3,57.88 146.91,68.58 148,71.13 148.69,72.73 152.87,82.43 154.77,82.43 158.21,82.43 159.55,82.43 160.49,80.25 159.8,78.65 
					"/>
		<polygon points="172.86,36.22 172.19,36.22 171.07,36.22 170.52,37.49 163.88,52.82 162.38,56.28 162.38,56.28 159.71,62.43 
			158.76,64.63 161.04,69.88 162.28,72.73 163,74.41 164.55,70.82 165.38,68.91 169.52,59.28 172.13,53.23 172.13,61.48 
			172.13,66.41 172.13,80.65 172.13,80.84 172.13,82.43 175.6,82.43 181.4,82.43 181.4,81.9 181.4,66.55 181.4,57.27 181.4,46.42 
			181.4,36.22 		"/>
	</g>
</g>
</svg>
