<svg xmlns="http://www.w3.org/2000/svg" viewBox="0 0 665.53 88.94"><defs><style>.cls-1,.cls-4{fill:#2b3179;}.cls-1,.cls-5{stroke:#2b3179;}.cls-1,.cls-2,.cls-3,.cls-5{stroke-miterlimit:10;}.cls-1{stroke-width:1.09px;}.cls-2{fill:#ed2024;stroke-width:1.04px;}.cls-2,.cls-3{stroke:#ed2024;}.cls-3,.cls-5{fill:none;}.cls-3{stroke-linecap:round;stroke-width:2.94px;}.cls-5{stroke-width:0.81px;}</style></defs><g id="Layer_2" data-name="Layer 2"><g id="Layer_1-2" data-name="Layer 1"><path class="cls-1" d="M191.82,34.08c.2,1.86.72,4.4,2.79,5.49a3.12,3.12,0,0,0,1.85.41c.26,0,.8.1.8.31s.07.47-.55.47c-1.14,0-6.13,0-8.05-.21-1.19-.1-1.45-.26-1.45-.52s.11-.31.36-.36.31-.93.21-1.86L185.3,11h-.16L172.46,37.86c-1.08,2.28-1.24,2.74-1.71,2.74s-.62-.52-1.6-2.38c-1.35-2.53-5.8-11.49-6.05-12-.47-.93-6.27-13.35-6.84-14.74h-.2l-2.07,24c-.05.83-.05,1.76-.05,2.64a1.64,1.64,0,0,0,1.34,1.6,9.39,9.39,0,0,0,2,.26c.2,0,.41.1.41.26,0,.36-.31.47-.93.47-1.91,0-4.4-.16-4.81-.16s-2.95.16-4.35.16c-.52,0-.88-.11-.88-.47,0-.16.26-.26.52-.26a6.89,6.89,0,0,0,1.55-.15c1.71-.31,1.86-2.33,2.07-4.3l3.73-33.74c.05-.57.26-.93.57-.93s.51.2.77.77l15.84,32.55L187,1.68c.21-.46.42-.82.78-.82s.52.41.62,1.39Z"/><path class="cls-1" d="M216.14,2.88c.62-1.71.83-2,1.14-2s.52.26,1.14,1.86c.77,2,8.9,23.34,12.06,31.21,1.86,4.6,3.36,5.43,4.45,5.74A6.61,6.61,0,0,0,237,40c.31,0,.51.05.51.31s-.46.42-1,.42c-.78,0-4.56,0-8.13-.11-1-.05-1.55-.05-1.55-.36s.16-.31.36-.36.62-.57.31-1.4l-4.81-12.73a.45.45,0,0,0-.46-.31H211.07a.54.54,0,0,0-.52.41L207.45,35a10.89,10.89,0,0,0-.73,3.47c0,1,1.09,1.5,2,1.5h.52c.36,0,.51.1.51.31s-.31.42-.77.42c-1.24,0-3.47-.16-4-.16s-2.3.24-4.73.24c-.67,0-1.49-.13-1.49-.44s.36-.37.62-.37a4.47,4.47,0,0,0,.74-.1c2.38-.31,3.41-2.28,4.34-4.87Zm5.38,20.7c.26,0,.26-.16.21-.37l-4.92-14c-.26-.78-.51-.78-.77,0l-4.56,14c-.1.26,0,.37.16.37Z"/><path class="cls-1" d="M246.31,33.67c.11,4.24.62,5.59,2,6a11.25,11.25,0,0,0,2.59.31c.26,0,.41.1.41.31s-.31.42-.93.42c-3,0-5-.16-5.49-.16s-2.63.16-5,.16c-.52,0-.83-.06-.83-.42s.15-.31.41-.31a7.31,7.31,0,0,0,2.12-.31c1.3-.36,1.56-1.86,1.56-6.57l0-29.66c0-2,.15-2.58.57-2.58s1.29,1.14,1.81,1.65c.78.88,8.49,9.21,16.46,17.75,5.12,5.49,10.76,11.8,12.42,13.51L274,7.48c-.05-3.36-.42-4.5-2-4.92a14.24,14.24,0,0,0-2.54-.25c-.36,0-.41-.16-.41-.37s.41-.36,1-.36c2.33,0,4.82.16,5.39.16s2.27-.16,4.4-.16c.56,0,.93,0,.93.36s-.21.37-.57.37a4.69,4.69,0,0,0-1.24.15C277.21,2.82,277,4,277,7.07l-.1,30.32c0,3.42-.11,3.68-.47,3.68s-1-.57-3.78-3.31c-.57-.52-8-8.13-13.5-14-6-6.47-11.85-13-13.51-14.85Z"/><path class="cls-1" d="M290.92,16.59c0-8.07,0-9.52-.1-11.18s-.52-2.59-2.23-2.95a10,10,0,0,0-1.76-.15c-.2,0-.41-.11-.41-.31s.26-.42.83-.42c2.33,0,5.48.16,5.95.16s3.57-.16,5.12-.16c.57,0,.83.1.83.42s-.21.31-.41.31a7.91,7.91,0,0,0-1.3.15c-1.39.21-1.81,1.14-1.91,3-.11,1.66-.11,3.11-.11,11.18v7.24c0,7.46,1.66,10.67,3.89,12.79,2.53,2.38,4.86,2.84,7.81,2.84a10.9,10.9,0,0,0,8.13-3.72c2.38-3,3-7.35,3-12.68V16.59c0-8.07,0-9.52-.11-11.18s-.51-2.59-2.22-2.95a10.11,10.11,0,0,0-1.76-.15c-.21,0-.42-.11-.42-.31s.26-.42.83-.42c2.33,0,5.18.16,5.49.16s2.79-.16,4.35-.16c.56,0,.82.1.82.42s-.2.31-.41.31a7.93,7.93,0,0,0-1.29.15c-1.4.31-1.82,1.14-1.92,3-.1,1.66-.1,3.11-.1,11.18v5.54c0,5.59-.62,11.8-4.76,15.47a15.18,15.18,0,0,1-10.66,3.83c-1.76,0-7-.21-10.67-3.67-2.53-2.44-4.5-6.06-4.5-13.61Z"/><path class="cls-1" d="M336.88,16.59c0-8.07,0-9.52-.11-11.18s-.51-2.59-2.22-2.95a10,10,0,0,0-1.76-.15c-.21,0-.41-.11-.41-.31s.25-.42.82-.42c1.19,0,2.59,0,3.73,0l2.12.05c1,0,11.54.06,12.73,0a11.73,11.73,0,0,0,2.28-.2c.31-.11.52-.31.72-.31s.31.2.31.46-.25,1-.41,2.44c-.05.51-.15,2.79-.26,3.41-.05.26-.15.57-.41.57s-.36-.26-.36-.62a5.68,5.68,0,0,0-.47-2c-.31-.67-1.5-1.6-3.52-1.65l-8-.16c-.31,0-.46.16-.46.57V18.5c0,.31,0,.47.36.47l6.62,0c.88,0,1.61,0,2.33-.05,1.24-.11,1.92-.26,2.38-.94.21-.25.36-.51.57-.51s.26.15.26.41-.26,1.19-.42,2.9c-.1,1-.2,3.1-.2,3.47s0,1-.36,1-.37-.21-.37-.47a8.48,8.48,0,0,0-.31-1.86A3.13,3.13,0,0,0,349.4,21c-1.29-.16-6.93-.16-7.81-.16-.26,0-.36.11-.36.47v4.4c0,5,0,9.05.25,11.23.16,1.5.47,2.64,2,2.84a21.23,21.23,0,0,0,2.33.21c.31,0,.42.16.42.31s-.26.42-.83.42c-2.85,0-6.11-.16-6.37-.16s-3.52.16-5.07.16c-.57,0-.83-.11-.83-.42,0-.15.11-.31.42-.31a7.59,7.59,0,0,0,1.55-.21c1-.2,1.29-1.34,1.5-2.84.26-2.18.26-6.26.26-11.23Z"/><path class="cls-1" d="M373.41,2.88c.63-1.71.83-2,1.14-2s.52.26,1.14,1.86c.78,2,8.9,23.34,12.06,31.21,1.86,4.6,3.36,5.43,4.45,5.74a6.65,6.65,0,0,0,2.07.31c.31,0,.52.05.52.31s-.47.42-1,.42c-.77,0-4.55,0-8.12-.11-1-.05-1.55-.05-1.55-.36s.15-.31.36-.36.62-.57.31-1.4l-4.81-12.73a.46.46,0,0,0-.47-.31H368.34a.53.53,0,0,0-.51.41L364.72,35a10.84,10.84,0,0,0-.72,3.47c0,1,1.08,1.5,2,1.5h.52c.36,0,.52.1.52.31s-.31.42-.78.42c-1.24,0-3.47-.16-4-.16s-3.41.16-5.84.16c-.68,0-1-.11-1-.42s.21-.31.47-.31,1.09,0,1.5-.1c2.38-.31,3.42-2.28,4.35-4.87Zm5.39,20.7c.26,0,.26-.16.2-.37l-4.91-14q-.39-1.17-.78,0l-4.55,14c-.11.26,0,.37.15.37Z"/><path class="cls-1" d="M402.55,35.84c-5-4.5-6.26-10.4-6.26-15.32a20.67,20.67,0,0,1,5.8-14.13c3.1-3.1,7.81-5.53,15.78-5.53a43.82,43.82,0,0,1,7.5.62,44.89,44.89,0,0,0,5.28.77c.57.06.68.26.68.57s-.16,1-.26,2.9c-.11,1.71-.11,4.56-.16,5.33s-.15,1.09-.46,1.09-.42-.36-.42-1.09a7.19,7.19,0,0,0-2.17-5.28c-1.81-1.55-5.8-2.95-10.35-2.95-6.89,0-10.09,2-11.91,3.78-3.77,3.62-4.65,8.23-4.65,13.51a18.68,18.68,0,0,0,18.68,18.94c3.88,0,6.93-.47,9-2.59a9.86,9.86,0,0,0,1.92-4.35c.1-.56.21-.77.52-.77s.36.36.36.77a53.09,53.09,0,0,1-1.14,6.63c-.31,1-.41,1.09-1.35,1.5-2.07.83-6,1.19-9.31,1.19C411.87,41.43,406.64,39.52,402.55,35.84Z"/><path class="cls-1" d="M454.61,25.7c0,5,0,9.05.26,11.23.16,1.5.47,2.64,2,2.84a21,21,0,0,0,2.33.21c.31,0,.41.16.41.31s-.25.42-.82.42c-2.85,0-6.11-.16-6.37-.16s-3.52.16-5.07.16c-.57,0-.83-.11-.83-.42,0-.15.1-.31.41-.31a7.6,7.6,0,0,0,1.56-.21c1-.2,1.29-1.34,1.5-2.84.26-2.18.26-6.26.26-11.23V3.81l-7.66.1c-3.21,0-4.45.41-5.28,1.66a8.8,8.8,0,0,0-.88,1.6c-.16.41-.31.52-.52.52s-.26-.16-.26-.47c0-.52,1-5,1.14-5.38s.31-1,.52-1a10,10,0,0,0,2.28.62c1.5.15,3.46.26,4.08.26H463.1a21.24,21.24,0,0,0,3.68-.26c.77-.11,1.24-.26,1.44-.26s.26.31.26.62c0,1.55-.15,5.12-.15,5.69s-.16.68-.36.68-.37-.16-.42-.88l-.05-.57c-.16-1.56-1.4-2.75-6.37-2.85l-6.52-.1Z"/><path class="cls-1" d="M476.35,16.59c0-8.07,0-9.52-.1-11.18s-.52-2.59-2.23-2.95a10,10,0,0,0-1.76-.15c-.21,0-.41-.11-.41-.31s.26-.42.83-.42c2.32,0,5.48.16,5.95.16s3.57-.16,5.12-.16c.57,0,.83.1.83.42s-.21.31-.42.31a7.93,7.93,0,0,0-1.29.15c-1.4.21-1.81,1.14-1.91,3-.11,1.66-.11,3.11-.11,11.18v7.24c0,7.46,1.66,10.67,3.88,12.79,2.54,2.38,4.87,2.84,7.82,2.84a10.86,10.86,0,0,0,8.12-3.72c2.38-3,3-7.35,3-12.68V16.59c0-8.07,0-9.52-.1-11.18s-.52-2.59-2.22-2.95a10.11,10.11,0,0,0-1.76-.15c-.21,0-.42-.11-.42-.31s.26-.42.83-.42c2.33,0,5.18.16,5.49.16s2.79-.16,4.34-.16c.57,0,.83.1.83.42s-.21.31-.41.31a8,8,0,0,0-1.3.15c-1.39.31-1.81,1.14-1.91,3-.1,1.66-.1,3.11-.1,11.18v5.54c0,5.59-.63,11.8-4.77,15.47a15.15,15.15,0,0,1-10.66,3.83c-1.76,0-7-.21-10.66-3.67-2.53-2.44-4.5-6.06-4.5-13.61Z"/><path class="cls-1" d="M522.31,16.59c0-8.07,0-9.52-.11-11.18s-.52-2.59-2.22-2.95a10.11,10.11,0,0,0-1.76-.15c-.21,0-.42-.11-.42-.31s.26-.42.83-.42c2.33,0,5.59.16,5.85.16.57,0,4.5-.16,6.11-.16,3.26,0,6.72.31,9.47,2.28a9.07,9.07,0,0,1,3.57,7c0,3.83-1.61,7.66-6.27,12,4.25,5.44,7.77,10,10.77,13.25,2.79,2.95,4.39,3.42,5.68,3.63a15.53,15.53,0,0,0,2,.23c.26,0,.56.27.56.42,0,.31-.32.37-1.25.37l-3.11,0c-2.9,0-4.19-.26-5.54-1-2.22-1.19-4-3.72-7-7.61-2.18-2.84-4.61-6.31-5.64-7.65a.84.84,0,0,0-.68-.31L526.81,24c-.26,0-.36.16-.36.42V25.7c0,5,0,9.05.25,11.23.16,1.5.47,2.64,2,2.84a21.23,21.23,0,0,0,2.33.21c.31,0,.42.16.42.31s-.26.42-.83.42c-2.85,0-6.11-.16-6.37-.16,0,0-3.31.16-4.86.16-.57,0-.83-.11-.83-.42,0-.15.1-.31.41-.31a7.6,7.6,0,0,0,1.56-.21c1-.2,1.29-1.34,1.5-2.84.26-2.18.26-6.26.26-11.23Zm4.14,4.5a.66.66,0,0,0,.36.62,14.11,14.11,0,0,0,5.43.83,6.68,6.68,0,0,0,3.88-1c1.81-1.24,3.16-4,3.16-8,0-6.47-3.42-10.35-8.95-10.35a15.34,15.34,0,0,0-3.47.31.62.62,0,0,0-.41.62Z"/><path class="cls-1" d="M565.67,25.7c0,5,0,9.05.26,11.23.16,1.5.47,2.64,2,2.84a21,21,0,0,0,2.33.21c.31,0,.41.16.41.31s-.25.42-.82.42c-2.85,0-6.11-.16-6.37-.16s-3.52.16-5.07.16c-.57,0-.83-.11-.83-.42,0-.15.1-.31.41-.31a7.6,7.6,0,0,0,1.56-.21c1-.2,1.29-1.34,1.5-2.84.26-2.18.26-6.26.26-11.23V16.59c0-8.07,0-9.52-.11-11.18s-.62-2.64-1.76-2.9a7,7,0,0,0-1.6-.2c-.21,0-.41-.11-.41-.31s.25-.42.82-.42c1.71,0,5,.16,5.23.16s3.52-.16,5.07-.16c.57,0,.83.1.83.42s-.21.31-.41.31a7.91,7.91,0,0,0-1.3.15c-1.39.26-1.81,1.14-1.91,3-.11,1.66-.11,3.11-.11,11.18Z"/><path class="cls-1" d="M585.49,33.67c.11,4.24.63,5.59,2,6a11.3,11.3,0,0,0,2.59.31c.26,0,.41.1.41.31s-.31.42-.93.42c-3,0-5-.16-5.48-.16s-2.64.16-5,.16c-.52,0-.83-.06-.83-.42s.16-.31.42-.31a7.4,7.4,0,0,0,2.12-.31c1.29-.36,1.55-1.86,1.55-6.57l.05-29.66c0-2,.16-2.58.57-2.58S584.3,2,584.82,2.51c.78.88,8.49,9.21,16.46,17.75,5.12,5.49,10.76,11.8,12.42,13.51l-.57-26.29c0-3.36-.41-4.5-2-4.92a14.23,14.23,0,0,0-2.53-.25c-.37,0-.42-.16-.42-.37s.42-.36,1-.36c2.33,0,4.81.16,5.38.16s2.28-.16,4.4-.16c.57,0,.93,0,.93.36s-.21.37-.57.37a4.69,4.69,0,0,0-1.24.15c-1.71.36-1.92,1.5-1.92,4.61l-.1,30.32c0,3.42-.1,3.68-.47,3.68s-1-.57-3.77-3.31c-.57-.52-8-8.13-13.51-14-6-6.47-11.85-13-13.51-14.85Z"/><path class="cls-1" d="M656.91,27.51c0-4.19-.26-4.76-2.33-5.33a9.07,9.07,0,0,0-1.76-.16c-.2,0-.41-.1-.41-.31s.26-.41.83-.41c2.33,0,5.59.15,5.85.15s3.51-.15,5.07-.15c.57,0,.83.1.83.41s-.21.31-.42.31a7.14,7.14,0,0,0-1.29.16c-1.4.26-1.81,1.14-1.92,2.95-.1,1.65-.1,3.21-.1,5.38v5.8c0,2.33,0,2.43-.67,2.79-3.32,1.76-8,2.33-11,2.33-3.94,0-11.29-.52-17-5.54-3.16-2.74-6.16-8.28-6.16-14.75,0-8.28,4-14.12,8.64-17S644.85.86,648.84.86a44.13,44.13,0,0,1,7.92.88,25.41,25.41,0,0,0,4.19.51c.52.06.62.26.62.47a65.74,65.74,0,0,0-.36,7.35c0,.83-.11,1.09-.47,1.09s-.31-.32-.36-.78A7.91,7.91,0,0,0,659.29,7c-1.29-2-5.48-4.19-12.16-4.19-3.26,0-7.14.31-11.07,3.42-3,2.38-5.13,7.09-5.13,13.14a21.12,21.12,0,0,0,5.49,14.34A18.86,18.86,0,0,0,650,39.2a14.25,14.25,0,0,0,5.9-1.08,1.88,1.88,0,0,0,1-1.81Z"/><path class="cls-2" d="M12.88,7.8,23.23,35.18q2.26-5.23,6.48-16.1Q33.86,8.49,34.78,5.5a9.5,9.5,0,0,0,.49-2,1.12,1.12,0,0,0-.68-1.17A6,6,0,0,0,32.51,2c-.39,0-.59-.11-.59-.32s.4-.43,1.19-.43,1.94,0,3.23.08l2,.08c2.2-.11,3.6-.16,4.21-.16s.92.13.92.37S43.3,2,42.87,2a4.62,4.62,0,0,0-2.59.64q-1.29.85-3,5-.87,2.19-6.05,14.49-5.55,13.27-7,16.21c-.5,1.07-1,2.14-1.51,3.21-.29.57-.54.85-.75.85s-.56-.23-.81-.69a23.12,23.12,0,0,1-1.13-2.62L6.89,6.35a10.07,10.07,0,0,0-1.68-3A5,5,0,0,0,3,2.23,7.9,7.9,0,0,0,1,2C.67,2,.52,1.89.52,1.64s.47-.37,1.4-.37,2.35,0,3.92.08l2.4.08,2-.08c1.25-.05,2.26-.08,3.05-.08,1,0,1.46.13,1.46.37s-.22.36-.65.43h-1a2.84,2.84,0,0,0-1,.22,1.09,1.09,0,0,0-.7,1.07A25,25,0,0,0,12.88,7.8Z"/><path class="cls-2" d="M51.56,26.19V16.78c0-6.52,0-10.38-.11-11.55a2.93,2.93,0,0,0-2.32-3.05A8.76,8.76,0,0,0,47.3,2c-.29,0-.44-.11-.44-.32s.29-.43.87-.43c1,0,2.3,0,3.88.08l2.21.08c.33,0,1.15,0,2.48-.08s2.47-.08,3.4-.08q5.83,0,8.74,3a7.12,7.12,0,0,1,2,5,10.18,10.18,0,0,1-1.56,5.46,29.05,29.05,0,0,1-3.51,4.17,14.75,14.75,0,0,1,6.15,3.74,10.51,10.51,0,0,1,3.19,7.55,10.63,10.63,0,0,1-3.4,8q-3.84,3.7-10.36,3.7c-.47,0-1.76-.06-3.89-.17l-3.29-.16-2.13.08c-1.45.06-2.51.08-3.15.08s-.87-.14-.87-.42.17-.32.52-.32a7.74,7.74,0,0,0,1.53-.22c.83-.18,1.35-1.16,1.57-2.94Q51.56,35.71,51.56,26.19ZM55.87,3.62V18a.6.6,0,0,0,.38.59,21.15,21.15,0,0,0,3.29.21,14.34,14.34,0,0,0,3.24-.24,3.58,3.58,0,0,0,1.67-1.15A7.82,7.82,0,0,0,66.39,12a11,11,0,0,0-1.67-6.26,6.3,6.3,0,0,0-5.61-2.94A11.26,11.26,0,0,0,56.52,3C56.09,3.14,55.87,3.34,55.87,3.62Zm0,17v3.05q0,10.7.06,11.55A14.15,14.15,0,0,0,56.3,38a2.42,2.42,0,0,0,1.46,1.39,11.2,11.2,0,0,0,4.75.8,7.87,7.87,0,0,0,4.91-1.55,7,7,0,0,0,2.7-6q0-7.17-5.24-10.7a10.39,10.39,0,0,0-4.47-1.55c-.54-.07-1.95-.11-4.21-.11C56,20.2,55.87,20.33,55.87,20.58Z"/><path class="cls-2" d="M106.68,42.73C98.17,43,93.31,40.52,89,36.65s-6.5-9.14-6.5-15.8A20.47,20.47,0,0,1,83.71,14a20,20,0,0,1,4.82-7.76Q94.32.53,105,.52a44.69,44.69,0,0,1,7.85.64A51,51,0,0,0,118.4,2c.47,0,.7.23.7.58a9.78,9.78,0,0,1-.15,1,19,19,0,0,0-.22,2c0,1.57-.09,3.4-.17,5.51,0,.75-.19,1.12-.48,1.12s-.43-.37-.43-1.12a6.78,6.78,0,0,0-2.27-5.46q-3.61-3-10.79-3-8.31,0-12.41,3.91-4.86,4.65-4.85,14a19.19,19.19,0,0,0,5.39,13.64A18.7,18.7,0,0,0,106.8,40a16.83,16.83,0,0,0,7.27-1.65c4.05-2.18,4.68-3.48,5.37-3.16s0,2.58-1,3.45C117,39.85,114.2,42.51,106.68,42.73Z"/><line class="cls-3" x1="133.16" y1="1.81" x2="133.16" y2="41.34"/><path class="cls-4" d="M287,80.81c0,2.66,0,4.86.14,6,.08.81.25,1.42,1.08,1.53a11,11,0,0,0,1.25.11c.17,0,.22.08.22.17s-.14.22-.44.22c-1.53,0-3.28-.08-3.42-.08s-1.89.08-2.72.08c-.3,0-.44-.06-.44-.22s.05-.17.22-.17a3.94,3.94,0,0,0,.83-.11c.56-.11.7-.72.81-1.53.14-1.16.14-3.36.14-6V77.89a.16.16,0,0,0-.17-.16H272.77a.15.15,0,0,0-.17.16v2.92c0,2.66,0,4.86.14,6,.08.81.25,1.42,1.08,1.53a11,11,0,0,0,1.25.11c.17,0,.23.08.23.17s-.14.22-.45.22c-1.53,0-3.27-.08-3.41-.08s-1.89.08-2.72.08c-.31,0-.45-.06-.45-.22s.06-.17.22-.17a4,4,0,0,0,.84-.11c.55-.11.69-.72.8-1.53.14-1.16.14-3.36.14-6V75.92c0-4.33,0-5.11,0-6s-.28-1.39-1.2-1.59a5.67,5.67,0,0,0-.94-.08c-.11,0-.22-.05-.22-.17s.13-.22.44-.22c1.25,0,3,.09,3.14.09s1.88-.09,2.72-.09c.3,0,.44.06.44.22s-.11.17-.22.17a4.68,4.68,0,0,0-.69.08c-.75.14-1,.62-1,1.59s-.06,1.66-.06,6v.59a.15.15,0,0,0,.17.16h11.77a.15.15,0,0,0,.17-.16v-.59c0-4.33,0-5.11-.06-6s-.28-1.39-1.19-1.59a5.8,5.8,0,0,0-.95-.08c-.11,0-.22-.05-.22-.17s.14-.22.45-.22c1.24,0,3,.09,3.13.09s1.89-.09,2.72-.09c.31,0,.45.06.45.22s-.11.17-.22.17a4.65,4.65,0,0,0-.7.08c-.75.14-1,.62-1,1.59s0,1.66,0,6Z"/><path class="cls-4" d="M300.92,68.57c.33-.92.44-1.09.61-1.09s.28.14.61,1c.41,1.06,4.77,12.52,6.47,16.74,1,2.47,1.8,2.92,2.38,3.08a3.61,3.61,0,0,0,1.11.17c.17,0,.28,0,.28.17s-.25.22-.55.22-2.45,0-4.36-.06c-.53,0-.83,0-.83-.19s.08-.17.19-.19.33-.31.17-.75l-2.59-6.83a.24.24,0,0,0-.24-.17h-6a.29.29,0,0,0-.28.22l-1.67,4.92a5.84,5.84,0,0,0-.39,1.86c0,.55.59.8,1.06.8h.28c.19,0,.27.06.27.17s-.16.22-.41.22c-.67,0-1.86-.08-2.17-.08s-1.83.08-3.13.08c-.36,0-.53-.06-.53-.22s.11-.17.25-.17.58,0,.8,0c1.28-.17,1.84-1.23,2.34-2.61Zm2.88,11.1c.14,0,.14-.08.12-.19L301.28,72q-.21-.63-.42,0l-2.44,7.5c-.06.14,0,.19.08.19Z"/><path class="cls-4" d="M337.7,85.31c.11,1,.3,2.55,1.5,2.94a6,6,0,0,0,1.8.25c.14,0,.22,0,.22.14s-.25.25-.58.25c-.61,0-3.61,0-4.64-.11-.63-.06-.77-.14-.77-.28s0-.17.19-.2.17-.5.11-1L334.2,72.9h-.08l-6.8,14.43c-.59,1.22-.67,1.47-.92,1.47s-.33-.27-.86-1.27c-.72-1.36-3.11-6.17-3.25-6.44-.25-.5-3.36-7.17-3.66-7.92h-.11l-1.11,12.89c0,.44,0,.94,0,1.41a.88.88,0,0,0,.72.86,5.22,5.22,0,0,0,1,.14c.12,0,.23.06.23.14s-.17.25-.5.25c-1,0-2.36-.08-2.59-.08s-1.58.08-2.33.08c-.27,0-.47-.06-.47-.25s.14-.14.28-.14a3.67,3.67,0,0,0,.83-.08c.92-.17,1-1.25,1.11-2.31l2-18.1c0-.3.14-.5.31-.5s.27.11.41.42l8.5,17.46,8.16-17.43c.11-.25.22-.45.42-.45s.27.23.33.75Z"/><path class="cls-4" d="M348.52,80.86c0,4.09.11,5.86.61,6.36s1.17.64,3.34.64c1.47,0,2.69,0,3.35-.83a3.89,3.89,0,0,0,.73-1.67c0-.22.08-.36.25-.36s.16.11.16.42a17.77,17.77,0,0,1-.41,2.77c-.2.64-.28.75-1.75.75-2,0-3.45,0-4.61-.08s-2-.08-2.83-.08l-1.14,0c-.56,0-1.17.06-1.58.06s-.45-.06-.45-.22.06-.17.22-.17a4,4,0,0,0,.84-.11c.55-.11.69-.72.8-1.53.14-1.16.14-3.36.14-6V75.92c0-4.33,0-5.11-.05-6s-.28-1.39-1.2-1.59a5.67,5.67,0,0,0-.94-.08c-.11,0-.22-.05-.22-.17s.13-.22.44-.22c1.25,0,3,.09,3.14.09s2.16-.09,3-.09c.3,0,.44.06.44.22s-.11.17-.22.17a7.29,7.29,0,0,0-.92.08c-.8.14-1,.62-1.08,1.59s-.06,1.66-.06,6Z"/><path class="cls-4" d="M362.62,75.92c0-4.33,0-5.11-.05-6s-.28-1.39-1.2-1.59a5.67,5.67,0,0,0-.94-.08c-.11,0-.22-.05-.22-.17s.14-.22.44-.22c.64,0,1.39,0,2,0l1.14.06c.19,0,5.72,0,6.36,0a8.43,8.43,0,0,0,1.19-.14c.14,0,.25-.14.39-.14s.11.11.11.25-.14.53-.22,1.3c0,.28-.08,1.5-.14,1.84,0,.14-.08.3-.19.3s-.23-.14-.23-.36a3,3,0,0,0-.16-1c-.2-.44-.47-.78-2-.94-.48-.06-3.5-.08-3.81-.08-.11,0-.16.08-.16.27v7.66c0,.2,0,.28.16.28.36,0,3.78,0,4.42,0s1-.11,1.3-.39.31-.36.42-.36.14,0,.14.22-.14.64-.23,1.55c-.05.56-.11,1.59-.11,1.78s0,.53-.19.53-.2-.11-.2-.25a2.87,2.87,0,0,0-.11-.92c-.11-.39-.36-.86-1.44-1-.75-.08-3.5-.14-4-.14-.14,0-.19.08-.19.2v2.44c0,.94,0,4.16,0,4.75.08,1.91.5,2.27,3.22,2.27a8.07,8.07,0,0,0,2.66-.3c.72-.31,1.06-.86,1.25-2,.06-.31.11-.42.25-.42s.17.22.17.42-.23,2.11-.36,2.69-.42.72-1.5.72c-2.08,0-3.61,0-4.69-.08s-1.75-.08-2.17-.08l-1.11,0c-.56,0-1.19.06-1.61.06s-.44-.06-.44-.22.05-.17.22-.17a3.94,3.94,0,0,0,.83-.11c.56-.11.69-.72.81-1.53.13-1.16.13-3.36.13-6Z"/><path class="cls-4" d="M385.47,80.81c0,2.66,0,4.86.14,6,.08.81.25,1.42,1.08,1.53a11,11,0,0,0,1.25.11c.17,0,.22.08.22.17s-.14.22-.44.22c-1.53,0-3.28-.08-3.42-.08s-1.88.08-2.72.08c-.3,0-.44-.06-.44-.22s.05-.17.22-.17a3.94,3.94,0,0,0,.83-.11c.56-.11.7-.72.81-1.53.14-1.16.14-3.36.14-6V69.07l-4.11.05c-1.72,0-2.39.22-2.83.89a4.4,4.4,0,0,0-.47.86c-.09.22-.17.28-.28.28s-.14-.09-.14-.25.55-2.67.61-2.89.17-.53.28-.53a5.17,5.17,0,0,0,1.22.34c.8.08,1.86.14,2.19.14H390a11.33,11.33,0,0,0,2-.14c.42-.06.67-.14.78-.14s.14.16.14.33c0,.83-.08,2.75-.08,3s-.09.37-.2.37-.19-.09-.22-.48l0-.3c-.08-.83-.75-1.47-3.41-1.53l-3.5-.05Z"/><line class="cls-5" x1="249.68" y1="79.01" x2="38.68" y2="79.01"/><line class="cls-5" x1="630.9" y1="79.5" x2="419.9" y2="79.5"/></g></g></svg>