<?xml version="1.0" encoding="utf-8"?>
<!-- Generator: Adobe Illustrator 25.2.3, SVG Export Plug-In . SVG Version: 6.00 Build 0)  -->
<svg version="1.1" id="Capa_1" xmlns="http://www.w3.org/2000/svg" xmlns:xlink="http://www.w3.org/1999/xlink" x="0px" y="0px"
	 viewBox="0 0 190 120" style="enable-background:new 0 0 190 120;" xml:space="preserve">
<style type="text/css">
	.st0{fill:none;stroke:#C6C6C5;stroke-width:0.75;stroke-miterlimit:10;}
	.st1{fill:#213047;}
	.st2{fill:#E20613;}
</style>
<line class="st0" x1="81.22" y1="48.07" x2="81.22" y2="73.93"/>
<g>
	<g>
		<path class="st1" d="M87.63,67.09l-1.75-6.17h-0.05c0.08,1.05,0.12,1.87,0.12,2.45v3.72H83.9v-8.57h3.08l1.79,6.08h0.05l1.75-6.08
			h3.09v8.57h-2.13v-3.76c0-0.2,0-0.41,0.01-0.65s0.03-0.82,0.08-1.75h-0.05l-1.73,6.16H87.63z"/>
		<path class="st1" d="M100.75,67.09l-0.42-1.61h-2.78l-0.43,1.61h-2.54l2.79-8.6h3.09l2.83,8.6H100.75z M99.85,63.59l-0.37-1.41
			c-0.09-0.31-0.19-0.72-0.31-1.21s-0.2-0.85-0.24-1.07c-0.04,0.2-0.1,0.53-0.21,0.98s-0.33,1.36-0.69,2.7H99.85z"/>
		<path class="st1" d="M112.37,67.09h-3.04l-3.13-6.04h-0.05c0.07,0.95,0.11,1.67,0.11,2.17v3.86h-2.05v-8.57h3.02l3.12,5.95h0.04
			c-0.05-0.86-0.08-1.56-0.08-2.08v-3.87h2.06V67.09z"/>
		<path class="st1" d="M121.5,58.53v5.16c0,1.12-0.32,1.99-0.95,2.6s-1.55,0.92-2.75,0.92c-1.17,0-2.07-0.3-2.69-0.9
			s-0.94-1.46-0.94-2.58v-5.21h2.33v5.03c0,0.61,0.11,1.04,0.34,1.32s0.56,0.41,1,0.41c0.47,0,0.82-0.14,1.03-0.41
			s0.32-0.72,0.32-1.33v-5.02H121.5z"/>
		<path class="st1" d="M125.58,67.09h-2.28v-8.57h5.06v1.86h-2.78v1.63h2.57v1.86h-2.57V67.09z"/>
		<path class="st1" d="M135.03,67.09l-0.42-1.61h-2.78l-0.43,1.61h-2.54l2.79-8.6h3.09l2.83,8.6H135.03z M134.12,63.59l-0.37-1.41
			c-0.09-0.31-0.19-0.72-0.31-1.21s-0.2-0.85-0.24-1.07c-0.04,0.2-0.1,0.53-0.21,0.98s-0.33,1.36-0.69,2.7H134.12z"/>
		<path class="st1" d="M142.3,60.3c-0.55,0-0.98,0.23-1.29,0.68s-0.46,1.07-0.46,1.87c0,1.65,0.63,2.47,1.88,2.47
			c0.38,0,0.75-0.05,1.1-0.16s0.71-0.23,1.07-0.38v1.96c-0.71,0.32-1.52,0.47-2.43,0.47c-1.29,0-2.28-0.38-2.97-1.13
			s-1.03-1.83-1.03-3.25c0-0.89,0.17-1.67,0.5-2.34s0.81-1.19,1.44-1.55s1.36-0.54,2.21-0.54c0.93,0,1.81,0.2,2.65,0.6l-0.71,1.82
			c-0.32-0.15-0.63-0.27-0.95-0.38S142.66,60.3,142.3,60.3z"/>
		<path class="st1" d="M150.05,67.09h-2.31v-6.67h-2.09v-1.89h6.49v1.89h-2.09V67.09z"/>
		<path class="st1" d="M160.64,58.53v5.16c0,1.12-0.32,1.99-0.95,2.6s-1.55,0.92-2.75,0.92c-1.17,0-2.07-0.3-2.69-0.9
			s-0.94-1.46-0.94-2.58v-5.21h2.33v5.03c0,0.61,0.11,1.04,0.34,1.32s0.56,0.41,1,0.41c0.47,0,0.82-0.14,1.03-0.41
			s0.32-0.72,0.32-1.33v-5.02H160.64z"/>
		<path class="st1" d="M164.76,63.97v3.12h-2.31v-8.57h2.81c2.33,0,3.49,0.84,3.49,2.53c0,0.99-0.48,1.76-1.45,2.3l2.5,3.73h-2.63
			l-1.82-3.12H164.76z M164.76,62.23h0.43c0.81,0,1.21-0.36,1.21-1.07c0-0.59-0.4-0.88-1.19-0.88h-0.46V62.23z"/>
		<path class="st1" d="M175.82,67.09l-0.42-1.61h-2.78l-0.43,1.61h-2.54l2.79-8.6h3.09l2.83,8.6H175.82z M174.92,63.59l-0.37-1.41
			c-0.09-0.31-0.19-0.72-0.31-1.21s-0.2-0.85-0.24-1.07c-0.04,0.2-0.1,0.53-0.21,0.98s-0.33,1.36-0.69,2.7H174.92z"/>
	</g>
</g>
<g>
	<line class="st0" x1="16.07" y1="49.2" x2="66.48" y2="49.2"/>
	<line class="st0" x1="5.59" y1="71" x2="76.97" y2="71"/>
	<g>
		<path d="M49.04,63.95h-3.05h-0.34c-0.49,0.94-1.18,1.6-2.06,1.99c-0.03,0.01-0.06,0.03-0.09,0.04l1.11,3.21
			c0.12-0.04,0.24-0.09,0.36-0.13c0.62-0.23,1.22-0.52,1.78-0.89c0.39-0.25,0.75-0.53,1.08-0.84c0.52-0.48,0.98-1.03,1.36-1.65
			c0.33-0.53,0.61-1.1,0.84-1.73h-0.76H49.04z"/>
		<path d="M46.75,52.63c-0.15-0.1-0.31-0.19-0.46-0.28c-1.4-0.8-2.96-1.21-4.71-1.22c-0.03,0-0.06,0-0.09,0
			c-1.06,0-2.05,0.15-2.98,0.44l0.35,1.01l0.58,1.69l0.17,0.49c0.39-0.13,0.81-0.21,1.26-0.25c0.2-0.02,0.41-0.03,0.62-0.03
			c0.82,0,1.54,0.14,2.16,0.42c0.59,0.27,1.09,0.66,1.49,1.17c0.19,0.24,0.36,0.5,0.5,0.79h2.26h2.13
			c-0.32-0.87-0.73-1.65-1.25-2.33C48.23,53.79,47.55,53.16,46.75,52.63z"/>
		<path d="M41.7,66.34c-0.07,0-0.14,0.01-0.2,0.01c-0.58,0-1.11-0.07-1.61-0.2c-0.74-0.2-1.4-0.53-1.97-1.02
			c-0.15-0.12-0.29-0.26-0.42-0.4c-0.78-0.82-1.27-1.86-1.46-3.09c0,0,0,0,0,0c-0.04-0.24-0.06-0.48-0.07-0.74
			c-0.01-0.16-0.02-0.32-0.02-0.48c0-0.51,0.05-0.99,0.13-1.45c0.15-0.79,0.42-1.48,0.81-2.1c0.18-0.27,0.37-0.53,0.6-0.77
			c0.16-0.17,0.34-0.32,0.51-0.47l-0.13-0.38l-1.02-2.96c-0.69,0.39-1.33,0.87-1.93,1.46c-0.16,0.16-0.32,0.32-0.46,0.49
			c-1.4,1.58-2.14,3.51-2.21,5.78c0,0.12-0.01,0.25-0.01,0.37c0,0.03,0,0.06,0,0.1c0.01,1.34,0.25,2.57,0.71,3.68
			c0.45,1.07,1.1,2.03,1.96,2.87c0.19,0.19,0.39,0.37,0.59,0.53c0.08,0.07,0.17,0.14,0.25,0.2c0.11,0.08,0.22,0.16,0.33,0.24
			c1.55,1.1,3.36,1.65,5.43,1.65c0.09,0,0.17-0.01,0.26-0.01c0.36-0.01,0.72-0.03,1.06-0.07l-1.06-3.07L41.7,66.34z"/>
		<polygon class="st2" points="17.29,64.21 17.28,64.2 17.28,64.2 16.11,61.5 15.04,59.01 14.03,56.69 13.03,54.39 12.66,53.53 
			11.47,50.78 10.25,50.78 7.39,50.78 7.39,52.85 7.39,57.39 7.39,57.78 7.39,63.4 7.39,63.56 7.39,64.07 7.39,68.9 11.05,68.9 
			11.05,68.88 11.05,64.06 11.05,60.69 11.05,59.33 11.05,58.65 11.05,57.5 11.44,58.4 11.81,59.27 13.62,63.47 14.05,64.47 
			14.32,65.09 15.96,68.9 16.7,68.9 18.06,68.9 18.58,68.9 18.95,68.04 18.68,67.42 		"/>
		<polygon class="st2" points="23.54,50.78 23.1,50.78 22.88,51.27 20.28,57.29 19.69,58.64 19.69,58.64 18.64,61.06 18.27,61.92 
			19.16,63.98 19.65,65.1 19.93,65.75 20.54,64.34 20.86,63.6 22.49,59.82 23.51,57.45 23.51,60.68 23.51,62.61 23.51,68.2 
			23.51,68.27 23.51,68.9 24.88,68.9 27.15,68.9 27.15,68.69 27.15,62.67 27.15,59.03 27.15,54.78 27.15,50.78 23.8,50.78 		"/>
		<polygon points="65.3,64.21 65.3,64.2 65.3,64.2 64.12,61.5 63.05,59.01 62.04,56.69 61.05,54.39 60.67,53.53 59.48,50.78 
			58.26,50.78 55.4,50.78 55.4,52.85 55.4,57.39 55.4,57.78 55.4,63.4 55.4,63.56 55.4,64.07 55.4,68.9 59.06,68.9 59.06,68.88 
			59.06,64.06 59.06,60.69 59.06,59.33 59.06,58.65 59.06,57.5 59.45,58.4 59.83,59.27 61.63,63.47 62.06,64.47 62.33,65.09 
			63.97,68.9 64.72,68.9 66.07,68.9 66.59,68.9 66.96,68.04 66.69,67.42 		"/>
		<polygon points="71.81,50.78 71.55,50.78 71.11,50.78 70.89,51.27 68.29,57.29 67.7,58.64 67.7,58.64 66.66,61.06 66.28,61.92 
			67.18,63.98 67.66,65.1 67.95,65.75 68.56,64.34 68.88,63.6 70.5,59.82 71.53,57.45 71.53,60.68 71.53,62.61 71.53,68.2 
			71.53,68.27 71.53,68.9 72.89,68.9 75.16,68.9 75.16,68.69 75.16,62.67 75.16,59.03 75.16,54.78 75.16,50.78 		"/>
	</g>
</g>
</svg>
