<?xml version="1.0" encoding="utf-8"?>
<!-- Generator: Adobe Illustrator 25.2.3, SVG Export Plug-In . SVG Version: 6.00 Build 0)  -->
<svg version="1.1" id="Capa_1" xmlns="http://www.w3.org/2000/svg" xmlns:xlink="http://www.w3.org/1999/xlink" x="0px" y="0px"
	 viewBox="0 0 190 120" style="enable-background:new 0 0 190 120;" xml:space="preserve">
<style type="text/css">
	.st0{fill:none;stroke:#C6C6C5;stroke-width:0.75;stroke-miterlimit:10;}
	.st1{fill:#213047;}
	.st2{fill:#E20613;}
</style>
<line class="st0" x1="81.22" y1="47.07" x2="81.22" y2="72.93"/>
<g>
	<path class="st1" d="M86.21,62.98v3.12H83.9v-8.57h2.81c2.33,0,3.49,0.84,3.49,2.53c0,0.99-0.48,1.76-1.45,2.3l2.5,3.73h-2.63
		l-1.82-3.12H86.21z M86.21,61.23h0.43c0.81,0,1.21-0.36,1.21-1.07c0-0.59-0.4-0.88-1.19-0.88h-0.46V61.23z"/>
	<path class="st1" d="M97.1,66.09h-5.09v-8.57h5.09v1.86h-2.77v1.35h2.57v1.86h-2.57v1.62h2.77V66.09z"/>
	<path class="st1" d="M102.34,66.09l-1.75-6.17h-0.05c0.08,1.05,0.12,1.87,0.12,2.45v3.72H98.6v-8.57h3.08l1.79,6.08h0.05l1.75-6.08
		h3.09v8.57h-2.13v-3.76c0-0.2,0-0.41,0.01-0.65s0.03-0.82,0.08-1.75h-0.05l-1.73,6.16H102.34z"/>
	<path class="st1" d="M118.22,61.8c0,1.44-0.35,2.54-1.06,3.29s-1.74,1.13-3.11,1.13c-1.34,0-2.37-0.38-3.09-1.13
		s-1.08-1.85-1.08-3.29c0-1.43,0.36-2.51,1.07-3.27s1.75-1.13,3.11-1.13c1.36,0,2.4,0.37,3.1,1.12S118.22,60.35,118.22,61.8z
		 M112.33,61.8c0,1.66,0.58,2.48,1.73,2.48c0.59,0,1.02-0.2,1.3-0.6s0.42-1.03,0.42-1.88c0-0.86-0.14-1.49-0.43-1.9
		s-0.72-0.61-1.29-0.61C112.91,59.29,112.33,60.13,112.33,61.8z"/>
	<path class="st1" d="M127.04,61.63c0,1.43-0.39,2.53-1.18,3.3s-1.89,1.16-3.32,1.16h-2.77v-8.57h2.96c1.38,0,2.44,0.35,3.18,1.05
		S127.04,60.3,127.04,61.63z M124.64,61.71c0-0.79-0.16-1.37-0.47-1.75s-0.78-0.57-1.42-0.57h-0.67v4.8h0.52
		c0.7,0,1.22-0.2,1.55-0.61S124.64,62.55,124.64,61.71z"/>
	<path class="st1" d="M133.66,66.09h-5.09v-8.57h5.09v1.86h-2.77v1.35h2.57v1.86h-2.57v1.62h2.77V66.09z"/>
	<path class="st1" d="M135.16,66.09v-8.57h2.31v6.7h3.3v1.87H135.16z"/>
	<path class="st1" d="M147.4,66.09l-0.42-1.61h-2.78l-0.43,1.61h-2.54l2.79-8.6h3.09l2.83,8.6H147.4z M146.5,62.59l-0.37-1.41
		c-0.09-0.31-0.19-0.72-0.31-1.21s-0.2-0.85-0.24-1.07c-0.04,0.2-0.1,0.53-0.21,0.98s-0.33,1.36-0.69,2.7H146.5z"/>
	<path class="st1" d="M154.67,59.3c-0.55,0-0.98,0.23-1.29,0.68s-0.46,1.07-0.46,1.87c0,1.65,0.63,2.47,1.88,2.47
		c0.38,0,0.75-0.05,1.1-0.16s0.71-0.23,1.07-0.38v1.96c-0.71,0.32-1.52,0.47-2.43,0.47c-1.29,0-2.28-0.38-2.97-1.13
		s-1.03-1.83-1.03-3.25c0-0.89,0.17-1.67,0.5-2.34s0.81-1.19,1.44-1.55s1.36-0.54,2.21-0.54c0.93,0,1.81,0.2,2.65,0.6l-0.71,1.82
		c-0.32-0.15-0.63-0.27-0.95-0.38S155.04,59.3,154.67,59.3z"/>
	<path class="st1" d="M158.65,66.09v-8.57h2.33v8.57H158.65z"/>
	<path class="st1" d="M170.84,61.8c0,1.44-0.35,2.54-1.06,3.29s-1.74,1.13-3.11,1.13c-1.34,0-2.37-0.38-3.09-1.13
		s-1.08-1.85-1.08-3.29c0-1.43,0.36-2.51,1.07-3.27s1.75-1.13,3.11-1.13c1.36,0,2.4,0.37,3.1,1.12S170.84,60.35,170.84,61.8z
		 M164.94,61.8c0,1.66,0.58,2.48,1.73,2.48c0.59,0,1.02-0.2,1.3-0.6s0.42-1.03,0.42-1.88c0-0.86-0.14-1.49-0.43-1.9
		s-0.72-0.61-1.29-0.61C165.52,59.29,164.94,60.13,164.94,61.8z M165.31,56.84v-0.17c0.6-0.64,0.98-1.06,1.15-1.25s0.3-0.36,0.4-0.5
		h2.51v0.12c-0.31,0.25-0.74,0.57-1.29,0.96s-0.96,0.67-1.24,0.84H165.31z"/>
	<path class="st1" d="M180.54,66.09h-3.04l-3.13-6.04h-0.05c0.07,0.95,0.11,1.67,0.11,2.17v3.86h-2.05v-8.57h3.02l3.12,5.95h0.04
		c-0.05-0.86-0.08-1.56-0.08-2.08v-3.87h2.06V66.09z"/>
</g>
<g>
	<line class="st0" x1="18.07" y1="49.2" x2="68.48" y2="49.2"/>
	<line class="st0" x1="7.59" y1="71" x2="78.97" y2="71"/>
	<g>
		<path d="M51.04,63.95h-3.05h-0.34c-0.49,0.94-1.18,1.6-2.06,1.99c-0.03,0.01-0.06,0.03-0.09,0.04l1.11,3.21
			c0.12-0.04,0.24-0.09,0.36-0.13c0.62-0.23,1.22-0.52,1.78-0.89c0.39-0.25,0.75-0.53,1.08-0.84c0.52-0.48,0.98-1.03,1.36-1.65
			c0.33-0.53,0.61-1.1,0.84-1.73h-0.76H51.04z"/>
		<path d="M48.75,52.63c-0.15-0.1-0.31-0.19-0.46-0.28c-1.4-0.8-2.96-1.21-4.71-1.22c-0.03,0-0.06,0-0.09,0
			c-1.06,0-2.05,0.15-2.98,0.44l0.35,1.01l0.58,1.69l0.17,0.49c0.39-0.13,0.81-0.21,1.26-0.25c0.2-0.02,0.41-0.03,0.62-0.03
			c0.82,0,1.54,0.14,2.16,0.42c0.59,0.27,1.09,0.66,1.49,1.17c0.19,0.24,0.36,0.5,0.5,0.79h2.26h2.13
			c-0.32-0.87-0.73-1.65-1.25-2.33C50.23,53.79,49.55,53.16,48.75,52.63z"/>
		<path d="M43.7,66.34c-0.07,0-0.14,0.01-0.2,0.01c-0.58,0-1.11-0.07-1.61-0.2c-0.74-0.2-1.4-0.53-1.97-1.02
			c-0.15-0.12-0.29-0.26-0.42-0.4c-0.78-0.82-1.27-1.86-1.46-3.09c0,0,0,0,0,0c-0.04-0.24-0.06-0.48-0.07-0.74
			c-0.01-0.16-0.02-0.32-0.02-0.48c0-0.51,0.05-0.99,0.13-1.45c0.15-0.79,0.42-1.48,0.81-2.1c0.18-0.27,0.37-0.53,0.6-0.77
			c0.16-0.17,0.34-0.32,0.51-0.47l-0.13-0.38l-1.02-2.96c-0.69,0.39-1.33,0.87-1.93,1.46c-0.16,0.16-0.32,0.32-0.46,0.49
			c-1.4,1.58-2.14,3.51-2.21,5.78c0,0.12-0.01,0.25-0.01,0.37c0,0.03,0,0.06,0,0.1c0.01,1.34,0.25,2.57,0.71,3.68
			c0.45,1.07,1.1,2.03,1.96,2.87c0.19,0.19,0.39,0.37,0.59,0.53c0.08,0.07,0.17,0.14,0.25,0.2c0.11,0.08,0.22,0.16,0.33,0.24
			c1.55,1.1,3.36,1.65,5.43,1.65c0.09,0,0.17-0.01,0.26-0.01c0.36-0.01,0.72-0.03,1.06-0.07l-1.06-3.07L43.7,66.34z"/>
		<polygon class="st2" points="19.29,64.21 19.28,64.2 19.28,64.2 18.11,61.5 17.04,59.01 16.03,56.69 15.03,54.39 14.66,53.53 
			13.47,50.78 12.25,50.78 9.39,50.78 9.39,52.85 9.39,57.39 9.39,57.78 9.39,63.4 9.39,63.56 9.39,64.07 9.39,68.9 13.05,68.9 
			13.05,68.88 13.05,64.06 13.05,60.69 13.05,59.33 13.05,58.65 13.05,57.5 13.44,58.4 13.81,59.27 15.62,63.47 16.05,64.47 
			16.32,65.09 17.96,68.9 18.7,68.9 20.06,68.9 20.58,68.9 20.95,68.04 20.68,67.42 		"/>
		<polygon class="st2" points="25.54,50.78 25.1,50.78 24.88,51.27 22.28,57.29 21.69,58.64 21.69,58.64 20.64,61.06 20.27,61.92 
			21.16,63.98 21.65,65.1 21.93,65.75 22.54,64.34 22.86,63.6 24.49,59.82 25.51,57.45 25.51,60.68 25.51,62.61 25.51,68.2 
			25.51,68.27 25.51,68.9 26.88,68.9 29.15,68.9 29.15,68.69 29.15,62.67 29.15,59.03 29.15,54.78 29.15,50.78 25.8,50.78 		"/>
		<polygon points="67.3,64.21 67.3,64.2 67.3,64.2 66.12,61.5 65.05,59.01 64.04,56.69 63.05,54.39 62.67,53.53 61.48,50.78 
			60.26,50.78 57.4,50.78 57.4,52.85 57.4,57.39 57.4,57.78 57.4,63.4 57.4,63.56 57.4,64.07 57.4,68.9 61.06,68.9 61.06,68.88 
			61.06,64.06 61.06,60.69 61.06,59.33 61.06,58.65 61.06,57.5 61.45,58.4 61.83,59.27 63.63,63.47 64.06,64.47 64.33,65.09 
			65.97,68.9 66.72,68.9 68.07,68.9 68.59,68.9 68.96,68.04 68.69,67.42 		"/>
		<polygon points="73.81,50.78 73.55,50.78 73.11,50.78 72.89,51.27 70.29,57.29 69.7,58.64 69.7,58.64 68.66,61.06 68.28,61.92 
			69.18,63.98 69.66,65.1 69.95,65.75 70.56,64.34 70.88,63.6 72.5,59.82 73.53,57.45 73.53,60.68 73.53,62.61 73.53,68.2 
			73.53,68.27 73.53,68.9 74.89,68.9 77.16,68.9 77.16,68.69 77.16,62.67 77.16,59.03 77.16,54.78 77.16,50.78 		"/>
	</g>
</g>
</svg>
