<?xml version="1.0" encoding="utf-8"?>
<!-- Generator: Adobe Illustrator 25.2.3, SVG Export Plug-In . SVG Version: 6.00 Build 0)  -->
<svg version="1.1" id="Capa_1" xmlns="http://www.w3.org/2000/svg" xmlns:xlink="http://www.w3.org/1999/xlink" x="0px" y="0px"
	 viewBox="0 0 190 120" style="enable-background:new 0 0 190 120;" xml:space="preserve">
<style type="text/css">
	.st0{fill:none;stroke:#C6C6C5;stroke-width:0.75;stroke-miterlimit:10;}
	.st1{fill:#213047;}
	.st2{fill:#E20613;}
</style>
<line class="st0" x1="75.22" y1="47.07" x2="75.22" y2="72.93"/>
<g>
	<g>
		<path class="st1" d="M83.5,54.49c0,0.53-0.13,1-0.4,1.42s-0.66,0.73-1.17,0.96s-1.1,0.34-1.79,0.34c-0.57,0-1.05-0.04-1.44-0.12
			s-0.79-0.22-1.21-0.42v-2.06c0.44,0.23,0.9,0.4,1.38,0.53s0.91,0.19,1.31,0.19c0.34,0,0.6-0.06,0.76-0.18s0.24-0.27,0.24-0.46
			c0-0.12-0.03-0.22-0.1-0.31s-0.17-0.18-0.31-0.27s-0.52-0.27-1.14-0.55c-0.56-0.25-0.98-0.5-1.26-0.74s-0.49-0.51-0.62-0.82
			s-0.2-0.67-0.2-1.1c0-0.79,0.29-1.4,0.86-1.85s1.36-0.66,2.37-0.66c0.89,0,1.79,0.21,2.71,0.62l-0.71,1.79
			c-0.8-0.37-1.49-0.55-2.07-0.55c-0.3,0-0.52,0.05-0.66,0.16s-0.21,0.24-0.21,0.39c0,0.17,0.09,0.32,0.26,0.45s0.65,0.38,1.42,0.73
			c0.74,0.33,1.25,0.69,1.54,1.07S83.5,53.91,83.5,54.49z"/>
		<path class="st1" d="M88.6,57.09h-2.31v-6.67H84.2v-1.89h6.49v1.89H88.6V57.09z"/>
		<path class="st1" d="M99.2,48.53v5.16c0,1.12-0.32,1.99-0.95,2.6s-1.55,0.92-2.75,0.92c-1.17,0-2.07-0.3-2.69-0.9
			s-0.94-1.46-0.94-2.58v-5.21h2.33v5.03c0,0.61,0.11,1.04,0.34,1.32s0.56,0.41,1,0.41c0.47,0,0.82-0.14,1.03-0.41
			s0.32-0.72,0.32-1.33v-5.02H99.2z"/>
		<path class="st1" d="M108.27,52.63c0,1.43-0.39,2.53-1.18,3.3s-1.89,1.16-3.32,1.16H101v-8.57h2.96c1.38,0,2.44,0.35,3.18,1.05
			S108.27,51.3,108.27,52.63z M105.86,52.71c0-0.79-0.16-1.37-0.47-1.75s-0.78-0.57-1.42-0.57h-0.67v4.8h0.52
			c0.7,0,1.22-0.2,1.55-0.61S105.86,53.55,105.86,52.71z"/>
		<path class="st1" d="M109.8,57.09v-8.57h2.33v8.57H109.8z"/>
		<path class="st1" d="M122,52.8c0,1.44-0.35,2.54-1.06,3.29s-1.74,1.13-3.11,1.13c-1.34,0-2.37-0.38-3.09-1.13
			s-1.08-1.85-1.08-3.29c0-1.43,0.36-2.51,1.07-3.27s1.75-1.13,3.11-1.13c1.36,0,2.4,0.37,3.1,1.12S122,51.35,122,52.8z M116.1,52.8
			c0,1.66,0.58,2.48,1.73,2.48c0.59,0,1.02-0.2,1.3-0.6s0.42-1.03,0.42-1.88c0-0.86-0.14-1.49-0.43-1.9s-0.72-0.61-1.29-0.61
			C116.68,50.29,116.1,51.13,116.1,52.8z"/>
		<path class="st1" d="M83.15,71.49l-0.42-1.61h-2.78l-0.43,1.61h-2.54l2.79-8.6h3.09l2.83,8.6H83.15z M82.25,67.99l-0.37-1.41
			c-0.09-0.31-0.19-0.72-0.31-1.21s-0.2-0.85-0.24-1.07c-0.04,0.2-0.1,0.53-0.21,0.98s-0.33,1.36-0.69,2.7H82.25z"/>
		<path class="st1" d="M88.92,68.38v3.12h-2.31v-8.57h2.81c2.33,0,3.49,0.84,3.49,2.53c0,0.99-0.48,1.76-1.45,2.3l2.5,3.73h-2.63
			l-1.82-3.12H88.92z M88.92,66.63h0.43c0.81,0,1.21-0.36,1.21-1.07c0-0.59-0.4-0.88-1.19-0.88h-0.46V66.63z"/>
		<path class="st1" d="M102.75,67.2c0,1.94-0.62,3.25-1.85,3.93l2.09,2.41h-2.88l-1.51-1.9l-0.01-0.01v-0.01l-0.01-0.01
			c-1.34,0-2.37-0.38-3.09-1.13s-1.08-1.85-1.08-3.29c0-1.43,0.36-2.51,1.07-3.27s1.75-1.13,3.11-1.13c1.36,0,2.4,0.37,3.1,1.12
			S102.75,65.75,102.75,67.2z M96.85,67.2c0,1.66,0.58,2.48,1.73,2.48c0.59,0,1.02-0.2,1.3-0.6s0.42-1.03,0.42-1.88
			c0-0.86-0.14-1.49-0.43-1.9s-0.72-0.61-1.29-0.61C97.43,64.69,96.85,65.53,96.85,67.2z"/>
		<path class="st1" d="M111.58,62.93v5.16c0,1.12-0.32,1.99-0.95,2.6s-1.55,0.92-2.75,0.92c-1.17,0-2.07-0.3-2.69-0.9
			s-0.94-1.46-0.94-2.58v-5.21h2.33v5.03c0,0.61,0.11,1.04,0.34,1.32s0.56,0.41,1,0.41c0.47,0,0.82-0.14,1.03-0.41
			s0.32-0.72,0.32-1.33v-5.02H111.58z"/>
		<path class="st1" d="M113.38,71.49v-8.57h2.33v8.57H113.38z"/>
		<path class="st1" d="M121.33,71.49h-2.31v-6.67h-2.09v-1.89h6.49v1.89h-2.09V71.49z"/>
		<path class="st1" d="M129.73,71.49h-5.09v-8.57h5.09v1.86h-2.77v1.35h2.57v1.86h-2.57v1.62h2.77V71.49z"/>
		<path class="st1" d="M135.04,64.7c-0.55,0-0.98,0.23-1.29,0.68s-0.46,1.07-0.46,1.87c0,1.65,0.63,2.47,1.88,2.47
			c0.38,0,0.75-0.05,1.1-0.16s0.71-0.23,1.07-0.38v1.96c-0.71,0.32-1.52,0.47-2.43,0.47c-1.29,0-2.28-0.38-2.97-1.13
			s-1.03-1.83-1.03-3.25c0-0.89,0.17-1.67,0.5-2.34s0.81-1.19,1.44-1.55s1.36-0.54,2.21-0.54c0.93,0,1.81,0.2,2.65,0.6l-0.71,1.82
			c-0.32-0.15-0.63-0.27-0.95-0.38S135.41,64.7,135.04,64.7z"/>
		<path class="st1" d="M142.8,71.49h-2.31v-6.67h-2.09v-1.89h6.49v1.89h-2.09V71.49z"/>
		<path class="st1" d="M154.12,67.2c0,1.44-0.35,2.54-1.06,3.29s-1.74,1.13-3.11,1.13c-1.34,0-2.37-0.38-3.09-1.13
			s-1.08-1.85-1.08-3.29c0-1.43,0.36-2.51,1.07-3.27s1.75-1.13,3.11-1.13c1.36,0,2.4,0.37,3.1,1.12S154.12,65.75,154.12,67.2z
			 M148.23,67.2c0,1.66,0.58,2.48,1.73,2.48c0.59,0,1.02-0.2,1.3-0.6s0.42-1.03,0.42-1.88c0-0.86-0.14-1.49-0.43-1.9
			s-0.72-0.61-1.29-0.61C148.81,64.69,148.23,65.53,148.23,67.2z M148.6,62.24v-0.17c0.6-0.64,0.98-1.06,1.15-1.25s0.3-0.36,0.4-0.5
			h2.51v0.12c-0.31,0.25-0.74,0.57-1.29,0.96s-0.96,0.67-1.24,0.84H148.6z"/>
		<path class="st1" d="M163.83,71.49h-3.04l-3.13-6.04h-0.05c0.07,0.95,0.11,1.67,0.11,2.17v3.86h-2.05v-8.57h3.02l3.12,5.95h0.04
			c-0.05-0.86-0.08-1.56-0.08-2.08v-3.87h2.06V71.49z"/>
		<path class="st1" d="M165.68,71.49v-8.57H168v8.57H165.68z"/>
		<path class="st1" d="M173.67,64.7c-0.55,0-0.98,0.23-1.29,0.68s-0.46,1.07-0.46,1.87c0,1.65,0.63,2.47,1.88,2.47
			c0.38,0,0.75-0.05,1.1-0.16s0.71-0.23,1.07-0.38v1.96c-0.71,0.32-1.52,0.47-2.43,0.47c-1.29,0-2.28-0.38-2.97-1.13
			s-1.03-1.83-1.03-3.25c0-0.89,0.17-1.67,0.5-2.34s0.81-1.19,1.44-1.55s1.36-0.54,2.21-0.54c0.93,0,1.81,0.2,2.65,0.6l-0.71,1.82
			c-0.32-0.15-0.63-0.27-0.95-0.38S174.03,64.7,173.67,64.7z"/>
		<path class="st1" d="M185.66,67.2c0,1.44-0.35,2.54-1.06,3.29s-1.74,1.13-3.11,1.13c-1.34,0-2.37-0.38-3.09-1.13
			s-1.08-1.85-1.08-3.29c0-1.43,0.36-2.51,1.07-3.27s1.75-1.13,3.11-1.13c1.36,0,2.4,0.37,3.1,1.12S185.66,65.75,185.66,67.2z
			 M179.76,67.2c0,1.66,0.58,2.48,1.73,2.48c0.59,0,1.02-0.2,1.3-0.6s0.42-1.03,0.42-1.88c0-0.86-0.14-1.49-0.43-1.9
			s-0.72-0.61-1.29-0.61C180.34,64.69,179.76,65.53,179.76,67.2z"/>
	</g>
</g>
<g>
	<line class="st0" x1="12.07" y1="49.2" x2="62.48" y2="49.2"/>
	<line class="st0" x1="1.59" y1="71" x2="72.97" y2="71"/>
	<g>
		<path d="M45.04,63.95h-3.05h-0.34c-0.49,0.94-1.18,1.6-2.06,1.99c-0.03,0.01-0.06,0.03-0.09,0.04l1.11,3.21
			c0.12-0.04,0.24-0.09,0.36-0.13c0.62-0.23,1.22-0.52,1.78-0.89c0.39-0.25,0.75-0.53,1.08-0.84c0.52-0.48,0.98-1.03,1.36-1.65
			c0.33-0.53,0.61-1.1,0.84-1.73h-0.76H45.04z"/>
		<path d="M42.75,52.63c-0.15-0.1-0.31-0.19-0.46-0.28c-1.4-0.8-2.96-1.21-4.71-1.22c-0.03,0-0.06,0-0.09,0
			c-1.06,0-2.05,0.15-2.98,0.44l0.35,1.01l0.58,1.69l0.17,0.49c0.39-0.13,0.81-0.21,1.26-0.25c0.2-0.02,0.41-0.03,0.62-0.03
			c0.82,0,1.54,0.14,2.16,0.42c0.59,0.27,1.09,0.66,1.49,1.17c0.19,0.24,0.36,0.5,0.5,0.79h2.26h2.13
			c-0.32-0.87-0.73-1.65-1.25-2.33C44.23,53.79,43.55,53.16,42.75,52.63z"/>
		<path d="M37.7,66.34c-0.07,0-0.14,0.01-0.2,0.01c-0.58,0-1.11-0.07-1.61-0.2c-0.74-0.2-1.4-0.53-1.97-1.02
			c-0.15-0.12-0.29-0.26-0.42-0.4c-0.78-0.82-1.27-1.86-1.46-3.09c0,0,0,0,0,0c-0.04-0.24-0.06-0.48-0.07-0.74
			c-0.01-0.16-0.02-0.32-0.02-0.48c0-0.51,0.05-0.99,0.13-1.45c0.15-0.79,0.42-1.48,0.81-2.1c0.18-0.27,0.37-0.53,0.6-0.77
			c0.16-0.17,0.34-0.32,0.51-0.47l-0.13-0.38l-1.02-2.96c-0.69,0.39-1.33,0.87-1.93,1.46c-0.16,0.16-0.32,0.32-0.46,0.49
			c-1.4,1.58-2.14,3.51-2.21,5.78c0,0.12-0.01,0.25-0.01,0.37c0,0.03,0,0.06,0,0.1c0.01,1.34,0.25,2.57,0.71,3.68
			c0.45,1.07,1.1,2.03,1.96,2.87c0.19,0.19,0.39,0.37,0.59,0.53c0.08,0.07,0.17,0.14,0.25,0.2c0.11,0.08,0.22,0.16,0.33,0.24
			c1.55,1.1,3.36,1.65,5.43,1.65c0.09,0,0.17-0.01,0.26-0.01c0.36-0.01,0.72-0.03,1.06-0.07l-1.06-3.07L37.7,66.34z"/>
		<polygon class="st2" points="13.29,64.21 13.28,64.2 13.28,64.2 12.11,61.5 11.04,59.01 10.03,56.69 9.03,54.39 8.66,53.53 
			7.47,50.78 6.25,50.78 3.39,50.78 3.39,52.85 3.39,57.39 3.39,57.78 3.39,63.4 3.39,63.56 3.39,64.07 3.39,68.9 7.05,68.9 
			7.05,68.88 7.05,64.06 7.05,60.69 7.05,59.33 7.05,58.65 7.05,57.5 7.44,58.4 7.81,59.27 9.62,63.47 10.05,64.47 10.32,65.09 
			11.96,68.9 12.7,68.9 14.06,68.9 14.58,68.9 14.95,68.04 14.68,67.42 		"/>
		<polygon class="st2" points="19.54,50.78 19.1,50.78 18.88,51.27 16.28,57.29 15.69,58.64 15.69,58.64 14.64,61.06 14.27,61.92 
			15.16,63.98 15.65,65.1 15.93,65.75 16.54,64.34 16.86,63.6 18.49,59.82 19.51,57.45 19.51,60.68 19.51,62.61 19.51,68.2 
			19.51,68.27 19.51,68.9 20.88,68.9 23.15,68.9 23.15,68.69 23.15,62.67 23.15,59.03 23.15,54.78 23.15,50.78 19.8,50.78 		"/>
		<polygon points="61.3,64.21 61.3,64.2 61.3,64.2 60.12,61.5 59.05,59.01 58.04,56.69 57.05,54.39 56.67,53.53 55.48,50.78 
			54.26,50.78 51.4,50.78 51.4,52.85 51.4,57.39 51.4,57.78 51.4,63.4 51.4,63.56 51.4,64.07 51.4,68.9 55.06,68.9 55.06,68.88 
			55.06,64.06 55.06,60.69 55.06,59.33 55.06,58.65 55.06,57.5 55.45,58.4 55.83,59.27 57.63,63.47 58.06,64.47 58.33,65.09 
			59.97,68.9 60.72,68.9 62.07,68.9 62.59,68.9 62.96,68.04 62.69,67.42 		"/>
		<polygon points="67.81,50.78 67.55,50.78 67.11,50.78 66.89,51.27 64.29,57.29 63.7,58.64 63.7,58.64 62.66,61.06 62.28,61.92 
			63.18,63.98 63.66,65.1 63.95,65.75 64.56,64.34 64.88,63.6 66.5,59.82 67.53,57.45 67.53,60.68 67.53,62.61 67.53,68.2 
			67.53,68.27 67.53,68.9 68.89,68.9 71.16,68.9 71.16,68.69 71.16,62.67 71.16,59.03 71.16,54.78 71.16,50.78 		"/>
	</g>
</g>
</svg>
