<?xml version="1.0" encoding="utf-8"?>
<!-- Generator: Adobe Illustrator 25.2.3, SVG Export Plug-In . SVG Version: 6.00 Build 0)  -->
<svg version="1.1" id="Capa_1" xmlns="http://www.w3.org/2000/svg" xmlns:xlink="http://www.w3.org/1999/xlink" x="0px" y="0px"
	 viewBox="0 0 190 120" style="enable-background:new 0 0 190 120;" xml:space="preserve">
<style type="text/css">
	.st0{fill:none;stroke:#C6C6C5;stroke-width:0.75;stroke-miterlimit:10;}
	.st1{fill:#213047;}
	.st2{fill:#E20613;}
</style>
<line class="st0" x1="101.22" y1="47.07" x2="101.22" y2="72.93"/>
<g>
	<g>
		<path class="st1" d="M107.68,66.09h-2.31v-6.67h-2.09v-1.89h6.49v1.89h-2.09V66.09z"/>
		<path class="st1" d="M118.27,57.53v5.16c0,1.12-0.32,1.99-0.95,2.6s-1.55,0.92-2.75,0.92c-1.17,0-2.07-0.3-2.69-0.9
			s-0.94-1.46-0.94-2.58v-5.21h2.33v5.03c0,0.61,0.11,1.04,0.34,1.32s0.56,0.41,1,0.41c0.47,0,0.82-0.14,1.03-0.41
			s0.32-0.72,0.32-1.33v-5.02H118.27z"/>
		<path class="st1" d="M120.07,57.53h2.99c1.16,0,2.03,0.17,2.59,0.52s0.85,0.88,0.85,1.61c0,0.48-0.12,0.89-0.37,1.23
			s-0.57,0.56-0.97,0.66v0.06c0.53,0.14,0.92,0.38,1.15,0.7s0.36,0.75,0.36,1.28c0,0.78-0.29,1.39-0.88,1.84s-1.38,0.67-2.39,0.67
			h-3.33V57.53z M122.38,60.81h0.7c0.33,0,0.59-0.07,0.77-0.21s0.27-0.34,0.27-0.61c0-0.48-0.36-0.72-1.09-0.72h-0.65V60.81z
			 M122.38,62.51v1.8h0.81c0.72,0,1.08-0.3,1.08-0.91c0-0.29-0.1-0.5-0.29-0.66s-0.47-0.23-0.84-0.23H122.38z"/>
		<path class="st1" d="M135.44,57.53v5.16c0,1.12-0.32,1.99-0.95,2.6s-1.55,0.92-2.75,0.92c-1.17,0-2.07-0.3-2.69-0.9
			s-0.94-1.46-0.94-2.58v-5.21h2.33v5.03c0,0.61,0.11,1.04,0.34,1.32s0.56,0.41,1,0.41c0.47,0,0.82-0.14,1.03-0.41
			s0.32-0.72,0.32-1.33v-5.02H135.44z"/>
		<path class="st1" d="M137.24,66.09v-8.57h2.31v6.7h3.3v1.87H137.24z"/>
		<path class="st1" d="M149.48,66.09l-0.42-1.61h-2.78l-0.43,1.61h-2.54l2.79-8.6h3.09l2.83,8.6H149.48z M148.58,62.59l-0.37-1.41
			c-0.09-0.31-0.19-0.72-0.31-1.21s-0.2-0.85-0.24-1.07c-0.04,0.2-0.1,0.53-0.21,0.98s-0.33,1.36-0.69,2.7H148.58z"/>
		<path class="st1" d="M155.25,62.98v3.12h-2.31v-8.57h2.81c2.33,0,3.49,0.84,3.49,2.53c0,0.99-0.48,1.76-1.45,2.3l2.5,3.73h-2.63
			l-1.82-3.12H155.25z M155.25,61.23h0.43c0.81,0,1.21-0.36,1.21-1.07c0-0.59-0.4-0.88-1.19-0.88h-0.46V61.23z"/>
	</g>
</g>
<g>
	<line class="st0" x1="35.07" y1="49.2" x2="85.48" y2="49.2"/>
	<line class="st0" x1="24.59" y1="71" x2="95.97" y2="71"/>
	<g>
		<path d="M68.04,63.95h-3.05h-0.34c-0.49,0.94-1.18,1.6-2.06,1.99c-0.03,0.01-0.06,0.03-0.09,0.04l1.11,3.21
			c0.12-0.04,0.24-0.09,0.36-0.13c0.62-0.23,1.22-0.52,1.78-0.89c0.39-0.25,0.75-0.53,1.08-0.84c0.52-0.48,0.98-1.03,1.36-1.65
			c0.33-0.53,0.61-1.1,0.84-1.73h-0.76H68.04z"/>
		<path d="M65.75,52.63c-0.15-0.1-0.31-0.19-0.46-0.28c-1.4-0.8-2.96-1.21-4.71-1.22c-0.03,0-0.06,0-0.09,0
			c-1.06,0-2.05,0.15-2.98,0.44l0.35,1.01l0.58,1.69l0.17,0.49c0.39-0.13,0.81-0.21,1.26-0.25c0.2-0.02,0.41-0.03,0.62-0.03
			c0.82,0,1.54,0.14,2.16,0.42c0.59,0.27,1.09,0.66,1.49,1.17c0.19,0.24,0.36,0.5,0.5,0.79h2.26h2.13
			c-0.32-0.87-0.73-1.65-1.25-2.33C67.23,53.79,66.55,53.16,65.75,52.63z"/>
		<path d="M60.7,66.34c-0.07,0-0.14,0.01-0.2,0.01c-0.58,0-1.11-0.07-1.61-0.2c-0.74-0.2-1.4-0.53-1.97-1.02
			c-0.15-0.12-0.29-0.26-0.42-0.4c-0.78-0.82-1.27-1.86-1.46-3.09c0,0,0,0,0,0c-0.04-0.24-0.06-0.48-0.07-0.74
			c-0.01-0.16-0.02-0.32-0.02-0.48c0-0.51,0.05-0.99,0.13-1.45c0.15-0.79,0.42-1.48,0.81-2.1c0.18-0.27,0.37-0.53,0.6-0.77
			c0.16-0.17,0.34-0.32,0.51-0.47l-0.13-0.38l-1.02-2.96c-0.69,0.39-1.33,0.87-1.93,1.46c-0.16,0.16-0.32,0.32-0.46,0.49
			c-1.4,1.58-2.14,3.51-2.21,5.78c0,0.12-0.01,0.25-0.01,0.37c0,0.03,0,0.06,0,0.1c0.01,1.34,0.25,2.57,0.71,3.68
			c0.45,1.07,1.1,2.03,1.96,2.87c0.19,0.19,0.39,0.37,0.59,0.53c0.08,0.07,0.17,0.14,0.25,0.2c0.11,0.08,0.22,0.16,0.33,0.24
			c1.55,1.1,3.36,1.65,5.43,1.65c0.09,0,0.17-0.01,0.26-0.01c0.36-0.01,0.72-0.03,1.06-0.07l-1.06-3.07L60.7,66.34z"/>
		<polygon class="st2" points="36.29,64.21 36.28,64.2 36.28,64.2 35.11,61.5 34.04,59.01 33.03,56.69 32.03,54.39 31.66,53.53 
			30.47,50.78 29.25,50.78 26.39,50.78 26.39,52.85 26.39,57.39 26.39,57.78 26.39,63.4 26.39,63.56 26.39,64.07 26.39,68.9 
			30.05,68.9 30.05,68.88 30.05,64.06 30.05,60.69 30.05,59.33 30.05,58.65 30.05,57.5 30.44,58.4 30.81,59.27 32.62,63.47 
			33.05,64.47 33.32,65.09 34.96,68.9 35.7,68.9 37.06,68.9 37.58,68.9 37.95,68.04 37.68,67.42 		"/>
		<polygon class="st2" points="42.54,50.78 42.1,50.78 41.88,51.27 39.28,57.29 38.69,58.64 38.69,58.64 37.64,61.06 37.27,61.92 
			38.16,63.98 38.65,65.1 38.93,65.75 39.54,64.34 39.86,63.6 41.49,59.82 42.51,57.45 42.51,60.68 42.51,62.61 42.51,68.2 
			42.51,68.27 42.51,68.9 43.88,68.9 46.15,68.9 46.15,68.69 46.15,62.67 46.15,59.03 46.15,54.78 46.15,50.78 42.8,50.78 		"/>
		<polygon points="84.3,64.21 84.3,64.2 84.3,64.2 83.12,61.5 82.05,59.01 81.04,56.69 80.05,54.39 79.67,53.53 78.48,50.78 
			77.26,50.78 74.4,50.78 74.4,52.85 74.4,57.39 74.4,57.78 74.4,63.4 74.4,63.56 74.4,64.07 74.4,68.9 78.06,68.9 78.06,68.88 
			78.06,64.06 78.06,60.69 78.06,59.33 78.06,58.65 78.06,57.5 78.45,58.4 78.83,59.27 80.63,63.47 81.06,64.47 81.33,65.09 
			82.97,68.9 83.72,68.9 85.07,68.9 85.59,68.9 85.96,68.04 85.69,67.42 		"/>
		<polygon points="90.81,50.78 90.55,50.78 90.11,50.78 89.89,51.27 87.29,57.29 86.7,58.64 86.7,58.64 85.66,61.06 85.28,61.92 
			86.18,63.98 86.66,65.1 86.95,65.75 87.56,64.34 87.88,63.6 89.5,59.82 90.53,57.45 90.53,60.68 90.53,62.61 90.53,68.2 
			90.53,68.27 90.53,68.9 91.89,68.9 94.16,68.9 94.16,68.69 94.16,62.67 94.16,59.03 94.16,54.78 94.16,50.78 		"/>
	</g>
</g>
</svg>
